<svg width="75" height="75" viewBox="0 0 75 75" fill="none" xmlns="http://www.w3.org/2000/svg">
<circle cx="37.5" cy="37.5" r="37.5" fill="white"/>
<path d="M25 26H45C45.5304 26 46.0391 26.2107 46.4142 26.5858C46.7893 26.9609 47 27.4696 47 28V44C47 46.1217 46.1571 48.1566 44.6569 49.6569C43.1566 51.1571 41.1217 52 39 52H31C28.8783 52 26.8434 51.1571 25.3431 49.6569C23.8429 48.1566 23 46.1217 23 44V28C23 27.4696 23.2107 26.9609 23.5858 26.5858C23.9609 26.2107 24.4696 26 25 26" stroke="#3572F1" stroke-width="2.5" stroke-linecap="round" stroke-linejoin="round"/>
<path d="M47 32H51C52.0609 32 53.0783 32.4214 53.8284 33.1716C54.5786 33.9217 55 34.9391 55 36V40C55 41.0609 54.5786 42.0783 53.8284 42.8284C53.0783 43.5786 52.0609 44 51 44H47" stroke="#3572F1" stroke-width="2.5" stroke-linecap="round" stroke-linejoin="round"/>
</svg>
