<svg width="375" height="212" viewBox="0 0 375 212" fill="none" xmlns="http://www.w3.org/2000/svg">
<g clip-path="url(#clip0)">
<path d="M337.813 273.099C303.171 272.762 195.642 273.702 128.9 290.463C5.1398 321.54 -87.349 253.395 -16.2469 185.534C3.62306 166.575 -37.3864 43.8777 92.4222 23.9877C206.369 6.53345 315.633 63.7819 368.771 88.6955C421.91 113.628 443.796 153.793 454.009 171.916C462.986 187.856 458.902 274.277 337.813 273.099Z" fill="#F7F8FC"/>
<path d="M137.597 181.987C138.757 181.275 142.727 185.691 144.41 189.594C147.715 197.252 148.566 201.488 149.85 209.93C151.885 223.325 155.322 244.596 156.459 253.651C157.481 261.813 160.771 271.461 155.855 270.099C155.931 258.898 150.772 242.009 147.781 233.139C137.573 202.846 134.026 184.171 137.597 181.987Z" fill="#E9D6B8"/>
<path d="M160.942 189.176C160.51 187.025 160.063 184.912 159.611 182.832C158.09 179.798 156.763 178.203 155.75 178.44C151.918 179.338 148.447 196.649 160.491 237.764C161.095 239.829 167.984 270.982 169.111 270.982C170.699 270.986 167.39 221.036 160.942 189.176Z" fill="#E9D6B8"/>
<path d="M132.452 31.1336L134.815 14.819C137.811 11.6662 141.653 9.98536 145.556 10.5504C153.092 11.6425 158.018 20.6592 156.563 30.6968C155.108 40.7344 147.819 47.9896 140.288 46.9022C135.015 46.1378 131.026 41.4893 129.595 35.3357C131.107 34.4051 132.191 32.9237 132.452 31.1336Z" fill="#163F59"/>
<path d="M162.374 40.5492C162.659 43.156 159.911 45.5965 156.226 46.0001L147.834 46.926C144.154 47.3296 140.935 45.5443 140.649 42.9375L138.025 19.1588C137.735 16.5521 140.488 14.1115 144.168 13.7032L152.565 12.782C156.245 12.3737 159.459 14.1637 159.749 16.7705L162.374 40.5492Z" fill="#163F59"/>
<path d="M140.488 50.7577C135.51 52.9086 133.018 52.2392 136.822 53.8393C138.648 56.0757 162.022 52.9609 163.291 50.0645C163.501 49.5754 154.015 48.1842 153.963 47.8234C153.378 43.6213 153.154 40.0744 154.329 35.3785C154.281 35.0129 153.996 34.7185 153.706 34.728C151.932 34.7802 150.149 34.7944 148.371 34.8419C148.076 34.8562 144.596 35.6206 145.371 37.292C145.751 41.8692 145.751 48.4786 140.488 50.7577Z" fill="#E9D6B8"/>
<path d="M138.904 36.9834C138.824 36.8172 138.747 36.651 138.671 36.4801C138.652 36.4278 138.624 36.3803 138.6 36.3234C138.505 36.1144 138.419 35.9008 138.329 35.6729C138.305 35.6111 138.286 35.5542 138.262 35.4972C138.201 35.331 138.139 35.1601 138.082 34.9891C138.049 34.8989 138.015 34.7992 137.987 34.709C137.939 34.5618 137.896 34.4194 137.849 34.2674C137.816 34.1677 137.787 34.0632 137.758 33.9635C137.701 33.7689 137.654 33.5742 137.597 33.3748C137.564 33.2276 137.525 33.0804 137.492 32.9237C137.459 32.7907 137.426 32.6483 137.392 32.5153C137.364 32.3777 137.335 32.24 137.307 32.0928C137.283 31.9741 137.254 31.8554 137.235 31.7272C137.216 31.6274 137.197 31.5325 137.174 31.4328C137.174 31.428 137.174 31.428 137.174 31.428C136.884 29.7377 137.459 21.7655 138.805 17.967C138.971 17.5064 139.461 17.1456 140.145 17.2168C144.253 17.6774 156.768 17.0981 153.535 28.4842V28.4937C153.525 28.5222 153.344 29.5003 153.249 29.9513C153.24 29.9941 153.23 30.0321 153.221 30.0653C153.121 30.5164 153.012 30.9627 152.893 31.3948C152.883 31.428 152.878 31.4518 152.869 31.4803C152.745 31.9218 152.617 32.3539 152.474 32.7717C152.47 32.786 152.47 32.805 152.46 32.8145C150.668 38.1846 147.534 41.7268 144.211 41.4941C142.275 41.3612 140.573 39.9604 139.294 37.7146C139.289 37.7146 139.289 37.7146 139.289 37.7146C139.28 37.6956 139.27 37.6813 139.261 37.6623C139.166 37.4914 139.066 37.3157 138.976 37.1353C138.952 37.0926 138.928 37.0356 138.904 36.9834Z" fill="#E9D6B8"/>
<path d="M214.271 46.7076C214.271 46.7076 213.439 46.2185 213.782 45.549C214.357 44.4427 216.297 42.8711 217.015 42.344C217.814 41.7553 222.041 39.6043 222.041 39.6043C222.041 39.6043 221.351 41.2282 219.659 42.0924C217.177 43.3696 214.271 46.7076 214.271 46.7076Z" fill="#E9D6B8"/>
<path d="M214.756 46.2755C215.646 44.7228 217.557 43.9346 220.039 43.5406C222.388 43.1702 223.101 41.8122 223.101 41.8122C223.101 41.8122 221.56 41.8882 217.971 42.8473C216.967 43.118 215.883 43.4693 215.051 44.0818C212.536 45.9194 212.474 50.2687 214.756 46.2755Z" fill="#E9D6B8"/>
<path d="M216.402 45.2071L215.574 44.8463L212.759 46.1235C212.759 46.1235 209.056 50.2734 208.219 52.3389C207.387 54.4043 198.124 66.7068 198.053 67.7609C197.925 69.6269 202.841 69.8453 202.841 69.8453C202.841 69.8453 207.7 58.8486 209.683 55.9475C211.666 53.0463 215.921 49.8841 216.744 48.7778C218.142 46.8832 218.96 46.0048 218.96 46.0048C218.96 46.0048 217.842 45.4018 215.474 48.2412C214.847 48.9867 214.343 47.8899 214.343 47.8899L216.402 45.2071Z" fill="#E9D6B8"/>
<path d="M165.421 82.5703L134.23 82.3092L130.417 46.6886L167.428 50.1975L165.421 82.5703Z" fill="#FEC00F"/>
<path d="M132.447 188.696C147.786 191.099 150.558 189.057 168.184 186.545C169.853 186.574 176.994 169.438 171.969 124.254C170.932 114.943 163.886 107.465 165.498 82.1858C155.013 81.9816 144.534 81.7822 134.045 81.578C138.215 104.554 113.295 108.125 132.447 188.696Z" fill="#FEC00F"/>
<path d="M131.397 91.891L135.823 60.6624L134.749 48.0703C134.012 47.3343 133.085 46.85 132.048 46.7218L131.344 46.6363C128.615 46.304 126.157 48.6021 125.862 51.7643L122.382 94.5262L131.397 91.891Z" fill="#387BFF"/>
<path d="M183.071 94.5357L167.128 68.4636L162.816 52.5336C163.372 51.7454 164.161 51.0996 165.141 50.734L165.802 50.4823C168.369 49.5185 171.232 50.8195 172.202 53.3835L190.16 83.7384L183.071 94.5357Z" fill="#387BFF"/>
<path d="M213.073 47.1776C213.073 47.1776 214.842 44.9508 216.216 44.5472C217.172 44.2718 221.879 43.7067 221.879 43.7067C221.879 43.7067 220.671 44.9887 218.784 45.2214C216.016 45.5633 213.073 47.1776 213.073 47.1776Z" fill="#E9D6B8"/>
<path d="M214.348 47.8946C214.348 47.8946 214.638 48.6496 214.989 48.7303C214.775 48.887 214.509 48.9867 214.329 49.0816C213.91 49.3001 211.409 51.299 211.409 51.299C211.409 51.299 212.935 49.509 213.268 48.8917C213.477 48.5024 214.143 47.7901 214.699 47.1824C214.771 47.1064 214.932 47.0399 215.085 46.9307L214.348 47.8946Z" fill="#E9D6B8"/>
<path d="M215.479 48.246C217.067 46.3372 218.094 45.9858 218.598 45.9574C218.218 46.4037 217.624 47.1396 216.834 48.2032C216.554 48.5878 215.85 49.2241 214.97 50.0075C214.804 50.1595 214.162 49.5802 212.379 50.3779C212.061 50.5203 213.435 48.83 214.424 48.0323C214.595 48.3077 214.994 48.8205 215.479 48.246Z" fill="#E9D6B8"/>
<path d="M146.626 33.7546C148.133 32.8335 149.213 31.3426 149.474 29.5477L151.842 13.2378C151.985 13.0859 152.137 12.9577 152.284 12.8153L152.569 12.782C156.25 12.3737 159.464 14.1637 159.754 16.7705L162.378 40.5492C162.602 42.5624 161.004 44.4617 158.575 45.4161C158.156 45.4066 157.738 45.3828 157.315 45.3211C152.042 44.5567 148.048 39.9082 146.626 33.7546Z" fill="#163F59"/>
<path d="M132.048 46.7171L141.615 46.907C141.615 46.907 146.826 76.9153 146.826 85.7184C146.826 94.5214 140.816 118.528 141.215 129.729C141.615 140.935 141.353 183.421 141.353 183.421H124.322C124.322 183.421 121.583 126.928 127.992 105.319C133.104 88.083 132.048 46.7171 132.048 46.7171Z" fill="#387BFF"/>
<path d="M141.615 46.907L136.808 46.5081L136.822 53.844L139.613 57.3149L138.41 60.914L142.418 76.92V108.529C142.418 108.529 147.625 80.5239 146.022 74.9211C144.42 69.3135 141.615 46.907 141.615 46.907Z" fill="#0063CB"/>
<path d="M157.638 48.906L167.423 50.1975C167.423 50.1975 166.049 78.9143 165.65 87.3185C165.25 95.7227 170.057 110.926 172.863 120.931C177.784 138.475 177.993 181.365 177.993 181.365C177.993 181.365 167.67 183.426 155.284 183.426C155.284 183.426 152.432 156.542 152.831 115.727C153.235 74.9163 157.638 48.906 157.638 48.906Z" fill="#387BFF"/>
<path d="M155.237 47.7047L151.229 74.9163L153.235 118.129L156.44 72.1149L160.443 62.1106L159.24 58.5115L161.247 56.5078L159.644 47.7047H155.237Z" fill="#0063CB"/>
<path d="M156.687 59.3661L124.06 56.1089L135.2 98.5241L165.255 101.724L156.687 59.3661Z" fill="#163F59"/>
<path d="M138.524 77.7985C142.204 72.1149 141.187 68.0173 141.838 65.2538C142.485 62.4904 142.722 59.4326 142.737 59.4658C144.135 62.1485 143.012 64.0241 143.131 65.4058C143.26 66.778 143.046 66.3079 144.501 64.3802C145.328 63.2739 144.781 60.0736 144.7 57.9654C144.629 56.1374 145.067 55.3017 145.067 55.3017C145.067 55.3017 145.989 57.9607 146.279 60.8001C146.626 64.2235 146.341 67.9935 146.146 68.8102C145.799 70.3011 143.459 74.1709 141.372 76.6731C139.023 79.484 135.861 81.8914 138.524 77.7985Z" fill="#E9D6B8"/>
<path d="M125.986 92.1189C133.998 82.5181 144.629 71.5689 144.629 71.5689L130.042 96.5252C130.042 96.5252 121.982 96.9193 125.986 92.1189Z" fill="#E9D6B8"/>
<path d="M124.407 89.5121C124.407 89.5121 119.239 96.4492 123.898 99.0179C126.542 100.476 128.667 99.5592 130.189 97.4368C133.013 93.4911 135.999 88.8616 135.999 88.8616L130.964 82.2855L124.407 89.5121Z" fill="#387BFF"/>
<path d="M146.269 66.4456C146.269 66.4456 147.777 61.3604 147.686 60.2635C147.625 59.5038 146.716 55.9712 146.716 55.9712C146.716 55.9712 146.013 57.7945 146.293 59.2284C146.578 60.6766 146.269 66.4456 146.269 66.4456Z" fill="#E2C59C"/>
<path d="M204.624 67.5425C204.624 67.5425 198.69 63.8389 196.826 66.08C194.963 68.3259 181.136 87.0099 182.139 92.1141C183.409 98.5811 189.851 95.5708 191.396 95.001C192.947 94.4265 204.624 67.5425 204.624 67.5425Z" fill="#387BFF"/>
<path d="M249.157 123.02C249.157 123.02 235.478 171.423 224.513 188.749C213.549 206.079 209.721 183.54 209.721 183.54L223.334 103.054L255.181 102.854C255.186 102.85 254.382 104.502 249.157 123.02Z" fill="#281617"/>
<path d="M234.042 103.044C234.042 103.044 243.209 182.443 244.521 186.431C248.957 199.926 259.099 191.213 260.668 186.716C262.237 182.22 264.847 148.931 264.324 124.639C263.801 100.343 263.801 101.938 263.801 101.938L234.042 103.044Z" fill="#281617"/>
<path d="M238.387 40.7154C239.105 43.6782 241.416 46.0096 243.489 45.8529C245.443 45.587 247.393 45.3211 249.347 45.0552C251.387 44.6516 252.989 41.7837 252.885 38.7402C252.69 33.7309 252.49 28.7168 252.295 23.7028C252.214 20.6924 249.994 14.9282 246.637 13.594C243.57 12.4164 240.304 12.8627 237.669 14.8142C234.793 16.9984 234.199 23.1472 234.926 26.0673C236.081 30.9532 237.237 35.839 238.387 40.7154Z" fill="#E2C59C"/>
<path d="M280.162 91.5539L259.798 112.374C259.798 112.374 284.351 106.748 285.445 96.5964C286.538 86.4448 280.162 91.5539 280.162 91.5539Z" fill="#E9D6B8"/>
<path d="M219.164 42.5767L235.482 36.4753L244.393 39.1295L255.414 37.8713L267.553 43.1275C267.553 43.1275 273.03 48.3884 267.943 65.2871C262.851 82.1857 264.809 108.666 264.809 108.666L221.603 110.589C221.603 110.589 220.025 85.9558 217.923 61.6357C216.268 42.5672 221.08 46.7503 219.164 42.5767Z" fill="#86C0F0"/>
<path d="M259.717 43.8872C259.717 43.8872 266.445 38.6215 273.03 48.3932C283.134 63.3878 289.867 79.9399 291.041 83.3206C292.216 86.6965 293.785 96.8386 289.082 99.8441C284.385 102.85 284.385 102.85 284.385 102.85L274.595 96.8385L276.164 93.833L276.948 91.9527C276.948 91.9527 271.466 79.9351 265.594 69.0429C259.717 58.1554 259.717 43.8872 259.717 43.8872Z" fill="#86C0F0"/>
<path d="M235.939 33.7404L241.331 38.0612L237.712 43.1417L233.3 36.4468L235.939 33.7404Z" fill="#74B2E8"/>
<path d="M253.141 35.293L244.459 38.3461L249.019 44.267L256.627 38.6167L253.141 35.293Z" fill="#74B2E8"/>
<path d="M242.201 152.558C242.201 152.558 244.236 182.671 243.941 198.596C243.722 210.604 243.698 233.623 245.529 253.238C245.638 254.439 255.447 253.532 255.447 253.532C255.447 253.532 262.033 178.464 263.074 166.166C264.125 153.869 250.032 143.774 242.201 152.558Z" fill="#281617"/>
<path d="M213.111 185.89C213.111 185.89 215.883 186.493 224.599 187.248C228.569 187.595 212.983 256.723 212.983 256.723L200.635 251.405L209.935 181.759L213.111 185.89Z" fill="#281617"/>
<path d="M284.603 100.946L276.164 93.8377L272.859 98.339L281.128 105.072L284.603 100.946Z" fill="#86C0F0"/>
<path d="M265.841 104.426C264.481 104.83 264.562 104.744 264.562 104.744C264.562 104.744 264.633 106.553 263.559 107.883C263.026 108.543 261.044 110.39 261.044 110.39L258.134 113.167L256.684 114.345C256.684 114.345 255.809 114.948 255.723 115.271C255.476 116.197 256.27 116.04 256.27 116.04L262.289 111.942L257.744 117.237C257.744 117.237 257.273 118.015 257.563 118.386C257.829 118.737 258.034 118.528 258.034 118.528L264.562 113.747L262.522 116.743C262.522 116.743 262.08 117.512 262.342 117.892C262.627 118.31 262.698 118.433 262.698 118.433L267.677 112.916C267.686 112.93 267.201 104.022 265.841 104.426Z" fill="#E9D6B8"/>
<path d="M262.941 113.091L259.955 117.004C259.955 117.004 259.189 117.802 259.066 118.395C258.918 119.074 259.503 119.221 259.503 119.221L264.572 113.761L262.941 113.091Z" fill="#E9D6B8"/>
<path d="M205.974 91.5539L226.339 112.374C226.339 112.374 201.786 106.748 200.692 96.5964C199.598 86.4448 205.974 91.5539 205.974 91.5539Z" fill="#E9D6B8"/>
<path d="M226.42 43.8872C226.42 43.8872 219.692 38.6215 213.107 48.3932C203.003 63.3878 196.27 79.9399 195.096 83.3206C193.921 86.6965 192.352 96.8386 197.055 99.8441C201.752 102.85 201.752 102.85 201.752 102.85L211.542 96.8385L209.973 93.833L209.189 91.9527C209.189 91.9527 214.671 79.9351 220.543 69.0429C226.42 58.1554 226.42 43.8872 226.42 43.8872Z" fill="#86C0F0"/>
<path d="M201.534 100.946L209.973 93.8377L213.273 98.339L205.009 105.072L201.534 100.946Z" fill="#86C0F0"/>
<path d="M220.291 104.426C221.651 104.83 221.57 104.744 221.57 104.744C221.57 104.744 221.499 106.553 222.573 107.883C223.106 108.543 225.088 110.39 225.088 110.39L227.998 113.167L229.449 114.345C229.449 114.345 230.323 114.948 230.409 115.271C230.656 116.197 229.862 116.04 229.862 116.04L223.838 111.952L228.383 117.246C228.383 117.246 228.854 118.025 228.564 118.395C228.298 118.747 228.093 118.538 228.093 118.538L221.565 113.756L223.605 116.752C223.605 116.752 224.047 117.521 223.786 117.901C223.5 118.319 223.429 118.443 223.429 118.443L218.451 112.925C218.451 112.93 218.936 104.022 220.291 104.426Z" fill="#E9D6B8"/>
<path d="M223.196 113.091L226.182 117.004C226.182 117.004 226.948 117.802 227.071 118.395C227.219 119.074 226.634 119.221 226.634 119.221L221.565 113.761L223.196 113.091Z" fill="#E9D6B8"/>
<path d="M244.816 109.416H240.251C235.473 85.4477 235.696 60.7241 240.955 36.8409C242.334 37.4012 243.708 37.9567 245.087 38.517C239.98 61.8637 239.899 86.046 244.816 109.416Z" fill="#74B2E8"/>
<path d="M233.447 31.1051C233.842 32.729 235.482 33.7119 237.099 33.3225L250.312 30.0795C251.934 29.6807 252.923 28.0426 252.528 26.4235L247.716 6.87531C247.322 5.26094 245.681 4.26858 244.055 4.66267L230.846 7.91041C229.225 8.30451 228.236 9.93787 228.631 11.5617L233.447 31.1051Z" fill="#E9D6B8"/>
<path d="M229.605 15.5929C229.605 15.5929 227.366 14.14 226.753 13.0574C226.444 12.5114 226.472 10.1515 227.723 8.93127C228.987 7.71575 230.594 9.0025 230.594 9.0025C230.594 9.0025 228.574 10.878 228.569 11.4003C228.569 11.9179 229.605 15.5929 229.605 15.5929Z" fill="#163F59"/>
<path d="M251.23 15.3365C251.23 15.3365 251.377 7.34064 250.469 5.22771C249.556 3.11953 248.938 1.6571 246.185 2.06544C242.072 2.6922 242.234 3.55636 239.971 2.8109C237.717 2.07494 233.471 -0.0095008 232.187 -0.00475264C230.043 -4.4927e-06 227.057 1.44818 227.87 5.2657C228.46 8.0861 226.862 9.20191 226.943 9.29688C227.181 9.60076 227.998 9.73845 229.434 10.0613C233.557 10.9967 235.853 10.821 238.482 9.39659C241.117 7.97214 245.962 5.09951 247.089 7.02726C248.215 8.95501 249.532 15.3698 249.894 15.7971C250.255 16.2339 250.826 15.8303 251.23 15.3365Z" fill="#194866"/>
<path d="M248.51 22.2308C248.643 22.7674 249.19 23.0998 249.737 22.9668L252.59 22.2688C253.122 22.1359 253.46 21.5898 253.327 21.0486L252.048 15.8398C251.91 15.2985 251.368 14.9662 250.826 15.0991L247.973 15.8018C247.431 15.9348 247.098 16.4761 247.236 17.0174L248.51 22.2308Z" fill="#E9D6B8"/>
<path d="M231.493 26.3997C231.621 26.9458 232.168 27.2734 232.706 27.1404L235.558 26.4377C236.096 26.3142 236.433 25.7635 236.3 25.2222L235.021 20.0135C234.883 19.4769 234.336 19.135 233.804 19.2727L230.946 19.966C230.409 20.1037 230.081 20.6497 230.209 21.191L231.493 26.3997Z" fill="#E9D6B8"/>
<path d="M250.384 17.364C250.384 17.364 252.281 25.056 252.908 27.6247C253.484 29.9418 253.812 35.2645 240.689 38.4743C232.92 40.383 231.802 34.6188 231.341 32.7432C230.984 31.3141 231.56 26.6514 232.173 25.6305C232.197 25.5973 232.958 28.8118 232.958 28.8118C232.958 28.8118 233.809 25.3219 237.503 24.415C243.456 22.9478 245.667 26.0958 248.282 25.3979C250.288 24.8518 250.997 21.191 250.384 17.364Z" fill="#194866"/>
<path d="M241.188 28.864L237.113 29.8611C236.576 29.9941 236.029 29.6664 235.891 29.1204L235.753 28.5506L241.787 27.0692L241.925 27.639C242.063 28.1803 241.73 28.7263 241.188 28.864Z" fill="#E9D6B8"/>
<path d="M53.9423 224.274C52.1593 224.274 49.3445 223.866 46.8768 221.724C43.3298 218.643 41.794 213.159 42.3122 205.434C42.6593 200.215 44.7134 194.94 46.891 189.347C50.5569 179.941 54.7078 169.281 52.5349 155.184L56.5669 154.562C58.9015 169.742 54.3512 181.432 50.6948 190.823C48.5457 196.341 46.6866 201.113 46.3775 205.704C45.9591 211.972 47.0432 216.435 49.5156 218.619C51.855 220.689 54.7839 220.158 54.9075 220.134L55.7253 224.127C55.6587 224.136 54.9741 224.274 53.9423 224.274Z" fill="#367082"/>
<path d="M126.024 220.262C126.143 219.678 126.209 216.008 126.209 215.381C126.209 211.369 123.618 208.121 120.409 208.121H55.7919C52.592 208.121 49.9959 211.369 49.9959 215.381C49.9959 216.012 50.0672 219.678 50.1908 220.262H126.024Z" fill="#8DCFFF"/>
<path d="M53.0104 182.999C54.608 183.117 64.7355 183.293 66.4805 183.317C77.5685 183.45 87.1208 181.37 87.6485 178.644C89.8357 167.311 89.9356 155.692 87.9338 144.353C87.4584 141.628 77.7682 139.548 66.4425 139.691C64.6642 139.714 54.3275 139.89 52.7014 140.013C56.1818 154.139 56.2817 168.863 53.0104 182.999Z" fill="#8DCFFF"/>
<path d="M51.4889 140.009C50.2479 140.023 49.3825 140.612 49.5537 141.324C52.6395 154.614 52.7584 168.403 49.9008 181.693C49.7439 182.405 50.5997 182.994 51.817 183.008C53.0294 183.027 54.1563 182.457 54.3084 181.74C57.2041 168.412 57.1137 154.595 54.0469 141.272C53.8805 140.555 52.7346 139.99 51.4889 140.009Z" fill="#367082"/>
<path d="M50.9944 182.98C51.3225 183.084 53.5191 183.165 53.9043 183.174C56.3197 183.203 58.8111 181.076 59.2914 178.393C61.3026 167.23 61.2551 155.782 59.1345 144.619C58.6305 141.936 56.0819 139.809 53.6142 139.838C53.2243 139.843 50.9896 139.928 50.6568 140.032C54.1325 154.149 54.2466 168.859 50.9944 182.98Z" fill="#7DC2F5"/>
<path d="M102.835 184.385L162.973 189.784L190.897 263.332L185.491 264.681C185.491 264.681 201.034 270.08 209.141 270.08C217.248 270.08 218.603 276.152 218.603 276.152L177.037 277.501L175.692 272.102L150.13 212.722L106.22 210.699L102.835 184.385Z" fill="#281617"/>
<path d="M67.6977 201.255C67.6977 201.255 52.1545 203.952 48.7787 173.588C45.4028 143.223 44.3853 118.932 44.3853 118.932L63.6419 108.809H80.5354C80.5354 108.809 94.7235 113.533 96.0786 120.28C97.429 127.027 92.698 154.021 94.7283 158.74C96.7538 163.465 104.19 178.982 104.19 178.982L67.6977 201.255Z" fill="#C5E1F9"/>
<path d="M96.0786 120.28C96.0786 120.28 112.297 137.825 114.998 146.932C117.698 156.043 121.754 165.15 117.023 168.526C112.292 171.902 109.254 173.588 107.899 171.56C106.549 169.538 86.2792 146.257 96.0786 120.28Z" fill="#9AC7F7"/>
<path d="M104.523 150.645H95.7458C94.6284 150.645 94.0341 149.733 94.4287 148.617L101.1 129.734C101.494 128.618 102.731 127.706 103.848 127.706H112.62C113.738 127.706 114.332 128.618 113.937 129.734L107.271 148.617C106.877 149.733 105.64 150.645 104.523 150.645Z" fill="#281617"/>
<path d="M78.8475 157.055L91.4048 148.218L93.7155 146.594C93.7155 146.594 97.7713 152.667 96.0786 156.717C94.3907 160.768 82.2281 163.465 80.1979 163.127C78.1724 162.79 78.8475 157.055 78.8475 157.055Z" fill="#F7B68B"/>
<path d="M101.142 148.285L100.13 157.055L94.7235 158.745L93.7108 146.599L101.142 148.285Z" fill="#EC9568"/>
<path d="M110.942 147.273L109.592 159.419L102.497 156.38C102.497 156.38 102.498 147.269 103.848 146.257C105.198 145.246 109.254 140.526 110.942 147.273Z" fill="#EC9568"/>
<path d="M62.2916 199.228C62.2916 199.228 68.3729 179.661 87.2919 176.959C106.211 174.262 109.592 174.262 109.592 174.262C109.592 174.262 122.429 191.806 135.942 267.378C136.475 270.35 119.049 275.474 119.049 275.474L98.7793 207.998C98.7793 208.002 73.1038 216.098 62.2916 199.228Z" fill="#3B47BC"/>
<path d="M96.4162 192.818L119.049 275.478" stroke="#9AC7F7" stroke-miterlimit="10"/>
<path d="M53.5096 126.016C53.5096 126.016 46.7531 116.23 44.0477 118.932C41.347 121.629 30.5348 151.319 31.21 160.768C31.8851 170.216 32.546 177.491 39.3168 177.975C62.9667 179.661 81.5482 166.166 81.5482 166.166L79.8603 152.335C79.8603 152.335 52.8344 154.021 50.8042 156.048C48.7787 158.066 52.8297 136.139 53.5096 126.016Z" fill="#9AC7F7"/>
<path d="M66.1857 75.695C66.1857 75.695 74.2022 76.6162 76.803 73.6391C79.4038 70.662 72.0055 71.4359 75.2625 73.7388C78.5242 76.0416 86.0652 72.3049 84.1966 68.5348C82.3232 64.7695 79.2517 63.0839 76.1706 65.1636C73.0895 67.2433 75.5192 68.5443 76.7222 66.4599C77.9203 64.3754 73.4937 59.0813 69.4142 66.3174C65.3298 73.5536 67.4029 74.1804 68.8721 69.3515C70.3366 64.5226 67.3411 61.3604 64.8686 67.0107C62.3962 72.661 65.8434 75.5906 66.8038 73.0551C67.7643 70.5195 60.4182 64.9072 59.6955 69.7741C58.9728 74.6362 58.3356 80.4669 62.0491 80.6521C65.7625 80.8373 57.475 67.7846 53.7616 78.1451C50.0529 88.5055 56.9901 85.5237 57.3229 83.1781C57.6557 80.8325 44.7562 84.8305 54.5604 88.553C64.3646 92.2756 60.7653 87.9832 61.6687 85.6234C62.5721 83.2636 53.2101 89.2747 58.0313 94.4977C62.8526 99.7207 67.6264 98.9087 66.7943 93.5766C65.9622 88.2444 60.2708 90.8464 61.935 95.3049C63.5991 99.7634 60.7558 102.289 59.686 102.717C58.6162 103.144 66.4139 106.634 68.0686 102.432C69.7137 98.2203 72.4524 77.4044 66.1857 75.695Z" fill="#212A54"/>
<path d="M82.637 80.4859L82.7464 78.259L78.3578 72.2241C78.3578 72.2241 77.9536 74.1709 70.5553 74.9448C59.5291 76.0939 69.0718 79.2039 69.4902 84.0375C69.7184 86.6775 69.1051 88.5483 68.311 89.346C70.5267 93.4531 73.2797 97.0047 76.2657 99.6352C76.2895 99.526 76.3037 99.4643 76.3037 99.4643C76.3037 99.4643 76.3037 99.4643 80.9824 101.444C85.661 103.424 85.119 98.3674 85.119 98.3674L84.5769 88.9804L86.436 85.9653L82.637 80.4859Z" fill="#F7B68B"/>
<path d="M82.637 80.4859L82.7464 78.259L78.3577 72.2241C78.3577 72.2241 77.9536 74.1709 70.5553 74.9448C59.5291 76.0939 69.0718 79.2039 69.4902 84.0328C69.9086 88.8664 67.517 91.155 66.3141 88.9044C65.1111 86.6585 61.3121 85.5095 59.491 87.7791C57.67 90.0534 62.8051 94.2413 63.9652 94.7826C65.1206 95.3239 65.967 95.0153 65.967 95.0153C65.967 95.0153 61.759 106.577 59.5814 112.284C60.7796 113.12 69.9276 113.813 73.546 112.284C74.088 107.389 76.3037 99.4643 76.3037 99.4643C76.3037 99.4643 76.3037 99.4643 80.9823 101.444C85.661 103.424 85.119 98.3675 85.119 98.3675L84.5769 88.9804L86.436 85.9653L82.637 80.4859Z" fill="#F7B68B"/>
<path d="M291.783 180.667L249.437 173.018C249.437 173.018 235.924 169.419 233.219 182.016C230.067 196.697 223.31 262.088 223.31 262.088L222.859 265.236L202.137 276.485H233.671L231.417 266.59L250.336 200.011C250.336 200.011 282.768 209.46 293.58 209.46C304.392 209.46 312.499 205.41 312.499 203.61C312.504 201.806 299.438 179.765 291.783 180.667Z" fill="#212957"/>
<path d="M281.617 107.313C281.617 107.313 291.916 98.1728 283.971 83.6624C279.568 75.6191 281.879 53.6446 296.134 60.463C310.393 67.2861 306.527 58.7821 314.577 62.5711C322.632 66.3649 326.188 72.0674 325.104 78.297C324.015 84.5171 324.724 96.3827 329.673 98.6618C334.623 100.941 358.335 113.699 343.053 129.814C327.767 145.93 272.198 134.097 281.617 107.313Z" fill="#212957"/>
<path d="M329.93 224.274C331.713 224.274 334.528 223.866 336.996 221.724C340.543 218.643 342.078 213.159 341.56 205.434C341.213 200.215 339.159 194.94 336.981 189.347C333.315 179.941 329.165 169.281 331.337 155.184L327.305 154.562C324.971 169.742 329.521 181.432 333.178 190.823C335.327 196.341 337.186 201.113 337.495 205.704C337.913 211.972 336.829 216.435 334.357 218.619C332.017 220.689 329.088 220.158 328.965 220.134L328.147 224.127C328.218 224.136 328.903 224.274 329.93 224.274Z" fill="#367082"/>
<path d="M257.853 220.262C257.734 219.678 257.663 216.008 257.663 215.381C257.663 211.369 260.254 208.121 263.464 208.121H328.085C331.285 208.121 333.881 211.369 333.881 215.381C333.881 216.012 333.81 219.678 333.686 220.262H257.853Z" fill="#8DCFFF"/>
<path d="M330.862 182.999C329.264 183.117 319.137 183.293 317.392 183.317C306.304 183.45 296.752 181.37 296.219 178.644C294.032 167.311 293.932 155.692 295.934 144.353C296.409 141.628 306.099 139.548 317.425 139.691C319.203 139.714 329.54 139.89 331.166 140.013C327.695 154.139 327.591 168.863 330.862 182.999Z" fill="#8DCFFF"/>
<path d="M332.384 140.009C333.625 140.023 334.49 140.612 334.319 141.324C331.233 154.614 331.114 168.403 333.972 181.693C334.129 182.405 333.273 182.994 332.055 183.008C330.843 183.027 329.716 182.457 329.564 181.74C326.668 168.412 326.759 154.595 329.826 141.272C329.997 140.555 331.138 139.99 332.384 140.009Z" fill="#367082"/>
<path d="M332.878 182.98C332.55 183.084 330.353 183.165 329.968 183.174C327.553 183.203 325.061 181.076 324.581 178.393C322.57 167.23 322.617 155.782 324.738 144.619C325.242 141.936 327.79 139.809 330.258 139.838C330.648 139.843 332.883 139.928 333.216 140.032C329.74 154.149 329.626 168.859 332.878 182.98Z" fill="#7DC2F5"/>
<path d="M313.474 90.5852C313.474 90.5852 310.431 105.77 312.461 111.164C314.487 116.562 298.611 112.512 298.611 112.512C298.611 112.512 299.286 100.029 299.623 97.3276C299.956 94.6354 313.474 90.5852 313.474 90.5852Z" fill="#F7B68B"/>
<path d="M298.901 97.9734C299.21 95.4948 311.615 91.7818 311.615 91.7818C311.615 91.7818 302.595 104.839 299.524 105.096C299.101 105.129 298.72 105.119 298.373 105.081C298.549 102.137 298.758 99.1129 298.901 97.9734Z" fill="#EC9568"/>
<path d="M291.151 77.8507C291.151 77.8507 290.219 90.5473 291.769 94.2603C293.319 97.9734 293.937 100.761 297.66 100.452C301.383 100.143 307.269 94.5689 310.683 92.4038C314.092 90.2386 316.574 87.7601 315.333 84.6643C314.092 81.5685 312.542 84.047 312.542 84.9729C312.542 85.9036 302.933 87.4515 295.492 82.8078C293.633 81.6445 290.837 79.7072 291.151 77.8507Z" fill="#F7B68B"/>
<path d="M298.506 173.284L266.008 146.946C266.008 146.946 259.798 147.625 262.713 151.589C265.627 155.554 284.893 178.811 284.893 178.811C284.893 178.811 304.559 187.723 298.506 173.284Z" fill="#EC9568"/>
<path d="M297.593 112.175C297.593 112.175 284.755 114.198 283.068 119.259C281.38 124.321 282.055 127.355 282.055 129.719C282.055 132.084 298.273 121.287 297.593 112.175Z" fill="#DD000B"/>
<path d="M311.448 110.489L297.598 112.175C297.598 112.175 282.055 128.371 278.679 129.045C275.298 129.72 279.853 166.665 279.017 171.669C278.565 174.366 291.179 175.606 297.936 176.617C304.692 177.628 314.154 176.617 314.154 176.617C314.154 176.617 310.773 165.82 313.141 154.685C315.504 143.551 325.979 135.118 323.616 127.355C321.243 119.601 328 119.601 311.448 110.489Z" fill="#FD2227"/>
<path d="M321.243 119.601C321.243 119.601 317.525 130.061 318.2 136.808C318.875 143.556 320.901 160.089 320.901 160.089C320.901 160.089 324.957 179.319 332.726 176.959C340.495 174.599 339.82 152.667 334.414 138.836C329.017 124.995 323.611 116.225 321.243 119.601Z" fill="#DD000B"/>
<path d="M336.625 170.259C336.625 170.259 336.287 174.138 336.287 174.984C336.287 175.829 332.569 176.84 328.684 176.84C324.8 176.84 296.081 160.307 293.381 159.13C290.68 157.947 284.427 156.262 282.906 156.095C281.384 155.925 280.205 151.708 281.047 149.011C281.608 147.226 282.164 145.659 283.015 145.151C283.453 144.89 283.961 144.904 284.594 145.303C286.453 146.485 293.885 152.895 293.885 152.895C293.885 152.895 311.282 156.1 318.21 159.139C325.137 162.164 333.249 165.872 336.625 170.259Z" fill="#F7B68B"/>
<path d="M274.124 146.305L283.02 145.141L281.052 149.002L282.235 154.904L277.338 155.749C277.338 155.749 276.663 154.904 277.509 154.567C278.356 154.229 279.535 153.721 279.535 153.721C279.535 153.721 277.172 153.384 276.154 153.213C275.141 153.042 274.97 152.705 274.97 152.202C274.97 151.694 275.983 151.357 275.983 151.357C275.983 151.357 274.124 150.683 273.958 150.175C273.786 149.666 273.449 148.992 273.786 148.489C274.124 147.986 273.615 146.642 274.124 146.305Z" fill="#EC9568"/>
<path d="M314.149 176.617H297.931L250.788 166.271C250.788 166.271 231.869 161.323 236.823 174.817C241.778 188.312 258.742 262.088 258.742 262.088L269.103 261.191C269.103 261.191 267.301 212.157 262.346 203.61C257.392 195.064 256.94 192.362 256.94 192.362C256.94 192.362 289.824 209.906 303.337 209.004C316.855 208.107 328.114 197.761 314.149 176.617Z" fill="#3B47BC"/>
<path d="M309.803 177.966C309.803 177.966 318.814 193.71 310.255 195.51C301.697 197.309 247.188 177.068 247.188 177.068C247.188 177.068 261.291 199.56 269.108 261.191" stroke="#8DCFFF" stroke-width="0.5" stroke-miterlimit="10"/>
<path d="M276.81 150.345C276.82 150.326 276.829 150.303 276.839 150.288L276.81 148.489H202.294V150.288C202.294 150.288 202.28 150.326 202.294 150.345L202.485 150.678C203.44 152.235 205.161 152.515 207.13 152.515H271.98C273.948 152.515 275.664 152.235 276.625 150.678L276.81 150.345Z" fill="#D0DEE6"/>
<path d="M258.852 150.649C258.852 150.649 258.842 150.683 258.852 150.697L259.037 150.967C259.332 151.366 259.703 151.665 260.126 151.884H271.457C273.349 151.884 275.004 151.656 275.921 150.398L276.097 150.122C276.111 150.108 276.121 150.094 276.13 150.075L276.111 149.192H258.847V150.649H258.852Z" fill="#B6C2C9"/>
<path d="M248.795 148.907H211.561V150.179H248.795V148.907Z" fill="#B6C2C9"/>
<path d="M258.438 148.427L248.776 111.862C248.52 110.893 247.531 110.114 246.566 110.114H194.287C193.322 110.114 192.747 110.898 192.999 111.862L202.66 148.427H258.438Z" fill="#D7DFE2"/>
<path d="M228.873 129.268C229.368 131.134 228.246 132.649 226.382 132.649C224.508 132.649 222.597 131.134 222.103 129.268C221.608 127.398 222.725 125.883 224.594 125.883C226.467 125.888 228.384 127.402 228.873 129.268Z" fill="#B6C2C9"/>
<path d="M102.293 278.128H94.6617L107.247 156.423H118.307L102.293 278.128Z" fill="#163F59"/>
<path d="M117.57 162.031L112.72 198.891L106.967 159.168L107.247 156.423H116.914L117.57 162.031Z" fill="#212957"/>
<path d="M204.477 278.128H196.85L209.431 156.423H220.491L204.477 278.128Z" fill="#163F59"/>
<path d="M219.754 162.031L214.904 198.891L209.146 159.168L209.431 156.423H219.098L219.754 162.031Z" fill="#212957"/>
<path d="M284.551 278.128H292.178L279.597 156.423H268.537L284.551 278.128Z" fill="#163F59"/>
<path d="M269.274 162.031L284.076 199.593L279.877 159.168L279.597 156.423H269.93L269.274 162.031Z" fill="#212957"/>
<path d="M290.271 152.473H198.315V159.585H290.271V152.473Z" fill="#387BFF"/>
<path d="M202.57 152.473H98.1564V159.585H202.57V152.473Z" fill="#7EB3FF"/>
</g>
<defs>
<clipPath id="clip0">
<rect width="498" height="314" fill="white" transform="translate(-41)"/>
</clipPath>
</defs>
</svg>
