<svg width="14" height="14" viewBox="0 0 14 14" fill="none" xmlns="http://www.w3.org/2000/svg">
<path d="M13 1L8.66665 13C8.6374 13.0638 8.59044 13.1179 8.53135 13.1558C8.47226 13.1938 8.40353 13.2139 8.33332 13.2139C8.26311 13.2139 8.19437 13.1938 8.13528 13.1558C8.0762 13.1179 8.02924 13.0638 7.99999 13L5.66665 8.33333L0.999986 6C0.936158 5.97075 0.88207 5.92379 0.84415 5.8647C0.80623 5.80561 0.786072 5.73688 0.786072 5.66667C0.786072 5.59646 0.80623 5.52772 0.84415 5.46863C0.88207 5.40954 0.936158 5.36258 0.999986 5.33333L13 1Z" stroke="#3572F1" stroke-width="1.5" stroke-linecap="round" stroke-linejoin="round"/>
</svg>
