<svg width="331" height="179" viewBox="0 0 331 179" fill="none" xmlns="http://www.w3.org/2000/svg">
<g clip-path="url(#clip0)">
<path d="M280.186 27.8347H51.026V197.8H280.186V27.8347Z" fill="#E9F6FF"/>
<path d="M280.186 15.9396H51.026V27.1774H280.186V15.9396Z" fill="#D4EDFF"/>
<path d="M59.27 21.5585C59.27 22.7971 58.2616 23.8083 57.0219 23.8083C55.7787 23.8083 54.7739 22.8007 54.7739 21.5585C54.7739 20.3163 55.7787 19.3124 57.0219 19.3124C58.2616 19.3124 59.27 20.3163 59.27 21.5585Z" fill="#074FDF"/>
<path d="M66.3934 21.5585C66.3934 22.7971 65.3851 23.8083 64.1454 23.8083C62.9022 23.8083 61.8938 22.8007 61.8938 21.5585C61.8938 20.3163 62.9022 19.3124 64.1454 19.3124C65.3851 19.3124 66.3934 20.3163 66.3934 21.5585Z" fill="#8DCFFF"/>
<path d="M73.5134 21.5585C73.5134 22.7971 72.5086 23.8083 71.2654 23.8083C70.0221 23.8083 69.0173 22.8007 69.0173 21.5585C69.0173 20.3163 70.0257 19.3124 71.2654 19.3124C72.5086 19.3124 73.5134 20.3163 73.5134 21.5585Z" fill="#ACD4F8"/>
<path d="M266.499 38.9244H64.5756V186.259H266.499V38.9244Z" fill="white"/>
<path d="M142.493 54.7773H83.4704V57.204H142.493V54.7773Z" fill="#C1E3FE"/>
<path d="M102.589 49.6099H83.4704V52.0329H102.589V49.6099Z" fill="#C1E3FE"/>
<path d="M252.303 54.7773H193.28V57.204H252.303V54.7773Z" fill="#C1E3FE"/>
<path d="M212.399 49.6099H193.28V52.0329H212.399V49.6099Z" fill="#C1E3FE"/>
<path d="M177.938 62.274H85.7726V166.672H177.938V62.274Z" stroke="#C1E3FE" stroke-width="0.2888" stroke-miterlimit="10"/>
<path d="M85.7726 151.758H177.938" stroke="#C1E3FE" stroke-width="0.2889" stroke-miterlimit="10"/>
<path d="M85.7726 136.844H177.938" stroke="#C1E3FE" stroke-width="0.2889" stroke-miterlimit="10"/>
<path d="M85.7726 121.93H177.938" stroke="#C1E3FE" stroke-width="0.2889" stroke-miterlimit="10"/>
<path d="M85.7726 107.016H177.938" stroke="#C1E3FE" stroke-width="0.2889" stroke-miterlimit="10"/>
<path d="M85.7726 92.1021H177.938" stroke="#C1E3FE" stroke-width="0.2889" stroke-miterlimit="10"/>
<path d="M85.7726 77.1881H177.938" stroke="#C1E3FE" stroke-width="0.2889" stroke-miterlimit="10"/>
<path d="M147.217 62.274V166.668" stroke="#C1E3FE" stroke-width="0.2889" stroke-miterlimit="10"/>
<path d="M116.497 62.274V166.668" stroke="#C1E3FE" stroke-width="0.2889" stroke-miterlimit="10"/>
<path d="M85.7726 62.274L81.0056 67.0371" stroke="#C1E3FE" stroke-width="0.2889" stroke-miterlimit="10"/>
<path d="M85.7726 77.1881L81.0056 81.9512" stroke="#C1E3FE" stroke-width="0.2889" stroke-miterlimit="10"/>
<path d="M85.7726 92.1021L81.0056 96.8652" stroke="#C1E3FE" stroke-width="0.2889" stroke-miterlimit="10"/>
<path d="M85.7726 107.016L81.0056 111.779" stroke="#C1E3FE" stroke-width="0.2889" stroke-miterlimit="10"/>
<path d="M85.7726 121.93L81.0056 126.693" stroke="#C1E3FE" stroke-width="0.2889" stroke-miterlimit="10"/>
<path d="M85.7726 136.844L81.0056 141.607" stroke="#C1E3FE" stroke-width="0.2889" stroke-miterlimit="10"/>
<path d="M85.7726 151.758L81.0056 156.521" stroke="#C1E3FE" stroke-width="0.2889" stroke-miterlimit="10"/>
<path d="M76.7734 156.934H76.7661L76.2963 157.186L76.224 156.908L76.8167 156.591H77.1312V159.299H76.777V156.934H76.7734Z" fill="#C1E3FE"/>
<path d="M79.9177 157.915C79.9177 158.836 79.5743 159.345 78.9744 159.345C78.4467 159.345 78.0853 158.85 78.0781 157.951C78.0781 157.041 78.472 156.543 79.0214 156.543C79.5924 156.546 79.9177 157.056 79.9177 157.915ZM78.4431 157.958C78.4431 158.663 78.6599 159.063 78.9925 159.063C79.3683 159.063 79.549 158.626 79.549 157.933C79.549 157.265 79.3792 156.828 78.9997 156.828C78.678 156.828 78.4431 157.222 78.4431 157.958Z" fill="#C1E3FE"/>
<path d="M75.9782 144.492V144.268L76.2673 143.99C76.9613 143.333 77.2721 142.983 77.2757 142.575C77.2757 142.3 77.142 142.044 76.7372 142.044C76.4914 142.044 76.2854 142.17 76.1625 142.275L76.0469 142.015C76.2348 141.856 76.5023 141.74 76.8131 141.74C77.3986 141.74 77.6443 142.141 77.6443 142.528C77.6443 143.03 77.2829 143.434 76.7083 143.983L76.4914 144.182V144.189H77.7094V144.492H75.9782Z" fill="#C1E3FE"/>
<path d="M79.9177 143.109C79.9177 144.03 79.5743 144.539 78.9744 144.539C78.4467 144.539 78.0853 144.045 78.0781 143.146C78.0781 142.236 78.472 141.737 79.0214 141.737C79.5924 141.737 79.9177 142.246 79.9177 143.109ZM78.4431 143.153C78.4431 143.857 78.6599 144.258 78.9925 144.258C79.3683 144.258 79.549 143.821 79.549 143.127C79.549 142.459 79.3792 142.022 78.9997 142.022C78.678 142.022 78.4431 142.412 78.4431 143.153Z" fill="#C1E3FE"/>
<path d="M76.065 129.264C76.1698 129.329 76.412 129.434 76.665 129.434C77.1348 129.434 77.283 129.134 77.2794 128.91C77.2757 128.531 76.9324 128.368 76.5782 128.368H76.3722V128.094H76.5782C76.8457 128.094 77.1818 127.957 77.1818 127.635C77.1818 127.419 77.0444 127.227 76.7083 127.227C76.4915 127.227 76.2819 127.325 76.1662 127.408L76.0722 127.141C76.2132 127.036 76.4879 126.931 76.7806 126.931C77.3155 126.931 77.5576 127.249 77.5576 127.578C77.5576 127.856 77.3914 128.094 77.0553 128.217V128.224C77.3878 128.289 77.6588 128.542 77.6588 128.921C77.6588 129.354 77.3227 129.733 76.6686 129.733C76.365 129.733 76.0975 129.636 75.9638 129.549L76.065 129.264Z" fill="#C1E3FE"/>
<path d="M79.9177 128.3C79.9177 129.221 79.5743 129.73 78.9744 129.73C78.4467 129.73 78.0853 129.235 78.0781 128.336C78.0781 127.426 78.472 126.928 79.0214 126.928C79.5924 126.931 79.9177 127.437 79.9177 128.3ZM78.4431 128.343C78.4431 129.048 78.6599 129.448 78.9925 129.448C79.3683 129.448 79.549 129.012 79.549 128.318C79.549 127.65 79.3792 127.213 78.9997 127.213C78.678 127.213 78.4431 127.607 78.4431 128.343Z" fill="#C1E3FE"/>
<path d="M77.1131 114.878V114.142H75.8553V113.9L77.0661 112.17H77.4637V113.853H77.8431V114.142H77.4637V114.878H77.1131ZM77.1131 113.853V112.946C77.1131 112.806 77.1167 112.665 77.1275 112.52H77.1131C77.03 112.679 76.9613 112.795 76.889 112.921L76.224 113.842V113.849H77.1131V113.853Z" fill="#C1E3FE"/>
<path d="M79.9177 113.494C79.9177 114.415 79.5743 114.924 78.9744 114.924C78.4467 114.924 78.0853 114.43 78.0781 113.531C78.0781 112.621 78.472 112.122 79.0214 112.122C79.5924 112.122 79.9177 112.631 79.9177 113.494ZM78.4431 113.534C78.4431 114.238 78.6599 114.639 78.9925 114.639C79.3683 114.639 79.549 114.202 79.549 113.509C79.549 112.841 79.3792 112.404 78.9997 112.404C78.678 112.407 78.4431 112.797 78.4431 113.534Z" fill="#C1E3FE"/>
<path d="M77.5938 97.6713H76.5601L76.4553 98.3683C76.5168 98.3611 76.5746 98.3502 76.6758 98.3502C76.8854 98.3502 77.0914 98.3972 77.2613 98.4947C77.4745 98.6138 77.648 98.8486 77.648 99.1916C77.648 99.7224 77.2252 100.116 76.6397 100.116C76.3433 100.116 76.0939 100.033 75.9638 99.9499L76.0542 99.6719C76.1662 99.7369 76.3867 99.8236 76.6324 99.8236C76.9794 99.8236 77.2758 99.5997 77.2758 99.2349C77.2721 98.8847 77.0372 98.6355 76.4951 98.6355C76.3397 98.6355 76.2204 98.6536 76.1192 98.6644L76.2927 97.3644H77.5902V97.6713H77.5938Z" fill="#C1E3FE"/>
<path d="M79.9177 98.6851C79.9177 99.6059 79.5743 100.115 78.9744 100.115C78.4467 100.115 78.0853 99.6204 78.0781 98.7212C78.0781 97.8112 78.472 97.3129 79.0214 97.3129C79.5924 97.3165 79.9177 97.822 79.9177 98.6851ZM78.4431 98.7284C78.4431 99.4326 78.6599 99.8334 78.9925 99.8334C79.3683 99.8334 79.549 99.3965 79.549 98.7032C79.549 98.0351 79.3792 97.5981 78.9997 97.5981C78.678 97.5981 78.4431 97.9918 78.4431 98.7284Z" fill="#C1E3FE"/>
<path d="M77.5251 82.8102C77.4492 82.8066 77.3552 82.8102 77.2504 82.8282C76.6758 82.9221 76.3686 83.3446 76.3071 83.7924H76.318C76.4481 83.6227 76.6722 83.4782 76.9722 83.4782C77.4528 83.4782 77.7889 83.8249 77.7889 84.3521C77.7889 84.8469 77.4528 85.3055 76.889 85.3055C76.3108 85.3055 75.9313 84.8541 75.9313 84.1499C75.9313 83.6155 76.1228 83.1966 76.3903 82.9293C76.6144 82.7091 76.9143 82.5718 77.2577 82.5285C77.3661 82.5104 77.4601 82.5068 77.5251 82.5068V82.8102ZM77.4203 84.3738C77.4203 83.9874 77.1998 83.7527 76.8601 83.7527C76.6396 83.7527 76.4336 83.8899 76.3361 84.0849C76.3108 84.1282 76.2927 84.1824 76.2927 84.2474C76.2999 84.6952 76.5059 85.0238 76.889 85.0238C77.2071 85.0238 77.4203 84.7602 77.4203 84.3738Z" fill="#C1E3FE"/>
<path d="M79.9177 83.8759C79.9177 84.7967 79.5743 85.3059 78.9744 85.3059C78.4467 85.3059 78.0853 84.8112 78.0781 83.912C78.0781 83.002 78.472 82.5037 79.0214 82.5037C79.5924 82.5073 79.9177 83.0128 79.9177 83.8759ZM78.4431 83.9192C78.4431 84.6234 78.6599 85.0242 78.9925 85.0242C79.3683 85.0242 79.549 84.5873 79.549 83.8939C79.549 83.2259 79.3792 82.7889 78.9997 82.7889C78.678 82.7889 78.4431 83.1826 78.4431 83.9192Z" fill="#C1E3FE"/>
<path d="M77.7384 67.7458V67.9878L76.5565 70.4542H76.177L77.3553 68.0564V68.0492H76.0289V67.7458H77.7384Z" fill="#C1E3FE"/>
<path d="M79.9177 69.0702C79.9177 69.9911 79.5744 70.5002 78.9744 70.5002C78.4468 70.5002 78.0854 70.0055 78.0781 69.1063C78.0781 68.1963 78.4721 67.698 79.0214 67.698C79.5925 67.698 79.9177 68.2072 79.9177 69.0702ZM78.4432 69.11C78.4432 69.8141 78.66 70.215 78.9925 70.215C79.3684 70.215 79.5491 69.778 79.5491 69.0847C79.5491 68.4166 79.3792 67.9797 78.9997 67.9797C78.6781 67.9833 78.4432 68.3733 78.4432 69.11Z" fill="#C1E3FE"/>
<path d="M95.473 172.183V171.959L95.7622 171.681C96.4561 171.024 96.7669 170.673 96.7705 170.265C96.7705 169.991 96.6368 169.734 96.232 169.734C95.9862 169.734 95.7802 169.861 95.6573 169.966L95.5417 169.706C95.7296 169.547 95.9971 169.431 96.3079 169.431C96.8934 169.431 97.1392 169.832 97.1392 170.218C97.1392 170.72 96.7777 171.121 96.2031 171.674L95.9862 171.872V171.88H97.2042V172.183H95.473Z" fill="#C1E3FE"/>
<path d="M99.4125 170.796C99.4125 171.717 99.0691 172.226 98.4692 172.226C97.9415 172.226 97.5801 171.731 97.5729 170.832C97.5729 169.922 97.9668 169.424 98.5162 169.424C99.0872 169.427 99.4125 169.933 99.4125 170.796ZM97.9415 170.839C97.9415 171.544 98.1584 171.944 98.4909 171.944C98.8668 171.944 99.0475 171.507 99.0475 170.814C99.0475 170.146 98.8776 169.709 98.4981 169.709C98.1764 169.709 97.9415 170.103 97.9415 170.839Z" fill="#C1E3FE"/>
<path d="M100.547 169.814H100.54L100.07 170.067L99.9979 169.788L100.591 169.471H100.905V172.179H100.551V169.814H100.547Z" fill="#C1E3FE"/>
<path d="M103.648 169.471V169.713L102.466 172.179H102.087L103.265 169.781V169.774H101.939V169.471H103.648Z" fill="#C1E3FE"/>
<path d="M126.815 172.183V171.959L127.104 171.681C127.798 171.024 128.109 170.673 128.113 170.265C128.113 169.991 127.979 169.734 127.574 169.734C127.328 169.734 127.122 169.861 127 169.966L126.884 169.706C127.072 169.547 127.339 169.431 127.65 169.431C128.236 169.431 128.481 169.832 128.481 170.218C128.481 170.72 128.12 171.121 127.545 171.674L127.328 171.872V171.88H128.546V172.183H126.815Z" fill="#C1E3FE"/>
<path d="M130.755 170.796C130.755 171.717 130.411 172.226 129.811 172.226C129.284 172.226 128.922 171.731 128.915 170.832C128.915 169.922 129.305 169.424 129.858 169.424C130.429 169.427 130.755 169.933 130.755 170.796ZM129.284 170.839C129.284 171.544 129.501 171.944 129.833 171.944C130.209 171.944 130.39 171.507 130.39 170.814C130.39 170.146 130.22 169.709 129.84 169.709C129.519 169.709 129.284 170.103 129.284 170.839Z" fill="#C1E3FE"/>
<path d="M131.889 169.814H131.882L131.412 170.067L131.34 169.788L131.933 169.471H132.247V172.179H131.893V169.814H131.889Z" fill="#C1E3FE"/>
<path d="M133.198 171.493C133.198 171.15 133.404 170.908 133.736 170.767L133.733 170.756C133.433 170.616 133.303 170.381 133.303 170.15C133.303 169.72 133.664 169.427 134.141 169.427C134.665 169.427 134.929 169.756 134.929 170.096C134.929 170.323 134.817 170.572 134.481 170.727V170.738C134.817 170.872 135.027 171.11 135.027 171.439C135.027 171.908 134.622 172.226 134.105 172.226C133.538 172.226 133.198 171.89 133.198 171.493ZM134.658 171.475C134.658 171.146 134.427 170.987 134.062 170.883C133.744 170.973 133.574 171.182 133.574 171.442C133.563 171.717 133.769 171.959 134.116 171.959C134.445 171.959 134.658 171.757 134.658 171.475ZM133.646 170.121C133.646 170.392 133.852 170.536 134.163 170.623C134.398 170.543 134.575 170.377 134.575 170.132C134.575 169.915 134.445 169.691 134.116 169.691C133.812 169.687 133.646 169.89 133.646 170.121Z" fill="#C1E3FE"/>
<path d="M158.157 172.183V171.959L158.446 171.681C159.14 171.024 159.451 170.673 159.455 170.265C159.455 169.991 159.321 169.734 158.916 169.734C158.671 169.734 158.464 169.861 158.342 169.966L158.226 169.706C158.414 169.547 158.681 169.431 158.992 169.431C159.578 169.431 159.823 169.832 159.823 170.218C159.823 170.72 159.462 171.121 158.887 171.674L158.671 171.872V171.88H159.888V172.183H158.157Z" fill="#C1E3FE"/>
<path d="M162.097 170.796C162.097 171.717 161.753 172.226 161.153 172.226C160.626 172.226 160.264 171.731 160.257 170.832C160.257 169.922 160.647 169.424 161.2 169.424C161.771 169.427 162.097 169.933 162.097 170.796ZM160.622 170.839C160.622 171.544 160.839 171.944 161.172 171.944C161.547 171.944 161.728 171.507 161.728 170.814C161.728 170.146 161.558 169.709 161.179 169.709C160.857 169.709 160.622 170.103 160.622 170.839Z" fill="#C1E3FE"/>
<path d="M163.228 169.814H163.221L162.751 170.067L162.679 169.788L163.271 169.471H163.586V172.179H163.232V169.814H163.228Z" fill="#C1E3FE"/>
<path d="M164.782 171.923C164.862 171.93 164.952 171.923 165.078 171.912C165.292 171.883 165.49 171.796 165.646 171.648C165.827 171.486 165.953 171.247 166.004 170.926H165.989C165.837 171.11 165.621 171.219 165.349 171.219C164.862 171.219 164.547 170.85 164.547 170.388C164.547 169.875 164.919 169.424 165.472 169.424C166.025 169.424 166.369 169.875 166.369 170.565C166.369 171.161 166.17 171.576 165.902 171.836C165.693 172.042 165.407 172.165 165.115 172.197C164.981 172.219 164.865 172.222 164.778 172.219V171.923H164.782ZM164.916 170.363C164.916 170.699 165.122 170.937 165.436 170.937C165.682 170.937 165.874 170.818 165.971 170.655C165.993 170.623 166.004 170.579 166.004 170.522C166.004 170.059 165.834 169.705 165.447 169.705C165.136 169.705 164.916 169.98 164.916 170.363Z" fill="#C1E3FE"/>
<path opacity="0.34" d="M177.938 77.1881H85.7726V92.1021H177.938V77.1881Z" fill="white"/>
<path opacity="0.34" d="M177.938 107.016H85.7726V121.93H177.938V107.016Z" fill="white"/>
<path opacity="0.34" d="M177.938 136.844H85.7726V151.758H177.938V136.844Z" fill="white"/>
<path d="M127.187 77.1881H85.7726V79.5678H127.187V77.1881Z" fill="#C2DEFF"/>
<path d="M156.918 83.4535H85.7726V85.8368H156.918V83.4535Z" fill="#0451DB"/>
<path d="M111.13 89.7224H85.7726V92.1021H111.13V89.7224Z" fill="#7AB6FE"/>
<path d="M160.535 107.016H85.7726V109.399H160.535V107.016Z" fill="#C2DEFF"/>
<path d="M116.493 113.281H85.7726V115.661H116.493V113.281Z" fill="#0451DB"/>
<path d="M147.217 119.547H85.7726V121.93H147.217V119.547Z" fill="#7AB6FE"/>
<path d="M116.493 137.036H85.7726V139.415H116.493V137.036Z" fill="#C2DEFF"/>
<path d="M147.217 143.301H85.7726V145.681H147.217V143.301Z" fill="#0451DB"/>
<path d="M136.487 149.566H85.7726V151.95H136.487V149.566Z" fill="#7AB6FE"/>
<path d="M196.431 66.575H193.28V69.7239H196.431V66.575Z" fill="#C1E3FE"/>
<path d="M205.362 66.575H202.21V69.7239H205.362V66.575Z" fill="#C1E3FE"/>
<path d="M214.293 66.575H211.141V69.7239H214.293V66.575Z" fill="#C1E3FE"/>
<path d="M223.227 66.575H220.075V69.7239H223.227V66.575Z" fill="#C1E3FE"/>
<path d="M232.157 66.575H229.006V69.7239H232.157V66.575Z" fill="#C1E3FE"/>
<path d="M241.088 66.575H237.936V69.7239H241.088V66.575Z" fill="#C2DEFF"/>
<path d="M250.019 66.575H246.867V69.7239H250.019V66.575Z" fill="#C2DEFF"/>
<path d="M196.431 74.4473H193.28V77.5962H196.431V74.4473Z" fill="#C1E3FE"/>
<path d="M205.362 74.4473H202.21V77.5962H205.362V74.4473Z" fill="#C1E3FE"/>
<path d="M214.293 74.4473H211.141V77.5962H214.293V74.4473Z" fill="#C1E3FE"/>
<path d="M223.227 74.4473H220.075V77.5962H223.227V74.4473Z" fill="#C1E3FE"/>
<path d="M232.157 74.4473H229.006V77.5962H232.157V74.4473Z" fill="#C1E3FE"/>
<path d="M241.088 74.4473H237.936V77.5962H241.088V74.4473Z" fill="#C2DEFF"/>
<path d="M250.019 74.4473H246.867V77.5962H250.019V74.4473Z" fill="#C2DEFF"/>
<path d="M196.431 82.3196H193.28V85.4685H196.431V82.3196Z" fill="#C1E3FE"/>
<path d="M205.362 82.3196H202.21V85.4685H205.362V82.3196Z" fill="#C1E3FE"/>
<path d="M214.293 82.3196H211.141V85.4685H214.293V82.3196Z" fill="#7AB6FE"/>
<path d="M223.227 82.3196H220.075V85.4685H223.227V82.3196Z" fill="#7AB6FE"/>
<path d="M232.157 82.3196H229.006V85.4685H232.157V82.3196Z" fill="#C1E3FE"/>
<path d="M241.088 82.3196H237.936V85.4685H241.088V82.3196Z" fill="#C2DEFF"/>
<path d="M250.019 82.3196H246.867V85.4685H250.019V82.3196Z" fill="#C2DEFF"/>
<path d="M196.431 90.1954H193.28V93.3444H196.431V90.1954Z" fill="#0451DB"/>
<path d="M205.362 90.1954H202.21V93.3444H205.362V90.1954Z" fill="#C1E3FE"/>
<path d="M214.293 90.1954H211.141V93.3444H214.293V90.1954Z" fill="#C1E3FE"/>
<path d="M223.227 90.1954H220.075V93.3444H223.227V90.1954Z" fill="#C1E3FE"/>
<path d="M232.157 90.1954H229.006V93.3444H232.157V90.1954Z" fill="#C1E3FE"/>
<path d="M241.088 90.1954H237.936V93.3444H241.088V90.1954Z" fill="#C2DEFF"/>
<path d="M250.019 90.1954H246.867V93.3444H250.019V90.1954Z" fill="#C2DEFF"/>
<path d="M196.431 98.0677H193.28V101.22H196.431V98.0677Z" fill="#C1E3FE"/>
<path d="M205.362 98.0677H202.21V101.22H205.362V98.0677Z" fill="#C1E3FE"/>
<path d="M214.293 98.0677H211.141V101.22H214.293V98.0677Z" fill="#C1E3FE"/>
<path d="M223.227 98.0677H220.075V101.22H223.227V98.0677Z" fill="#C1E3FE"/>
<path d="M232.157 98.0677H229.006V101.22H232.157V98.0677Z" fill="#C1E3FE"/>
<path d="M241.088 98.0677H237.936V101.22H241.088V98.0677Z" fill="#C2DEFF"/>
<path d="M250.019 98.0677H246.867V101.22H250.019V98.0677Z" fill="#C2DEFF"/>
<path d="M196.431 105.944H193.28V109.093H196.431V105.944Z" fill="#C1E3FE"/>
<path d="M205.362 105.944H202.21V109.093H205.362V105.944Z" fill="#C1E3FE"/>
<path d="M214.293 105.944H211.141V109.093H214.293V105.944Z" fill="#C1E3FE"/>
<path d="M223.227 105.944H220.075V109.093H223.227V105.944Z" fill="#C1E3FE"/>
<path d="M232.157 105.944H229.006V109.093H232.157V105.944Z" fill="#C1E3FE"/>
<path d="M241.088 105.944H237.936V109.093H241.088V105.944Z" fill="#C1E3FE"/>
<path d="M250.019 105.944H246.867V109.093H250.019V105.944Z" fill="#C1E3FE"/>
<path d="M190.251 164.712H190.247L189.998 164.845L189.962 164.697L190.276 164.531H190.443V165.961H190.255V164.712H190.251Z" fill="#C1E3FE"/>
<path d="M191.91 165.231C191.91 165.719 191.729 165.986 191.411 165.986C191.133 165.986 190.941 165.722 190.938 165.249C190.938 164.769 191.144 164.505 191.437 164.505C191.74 164.505 191.91 164.776 191.91 165.231ZM191.133 165.253C191.133 165.625 191.249 165.838 191.426 165.838C191.625 165.838 191.718 165.607 191.718 165.242C191.718 164.888 191.628 164.657 191.426 164.657C191.256 164.657 191.133 164.863 191.133 165.253Z" fill="#C1E3FE"/>
<path d="M189.828 158.576V158.457L189.98 158.309C190.345 157.962 190.511 157.774 190.515 157.561C190.515 157.417 190.446 157.283 190.229 157.283C190.099 157.283 189.991 157.348 189.926 157.402L189.864 157.265C189.966 157.182 190.107 157.121 190.269 157.121C190.576 157.121 190.706 157.334 190.706 157.536C190.706 157.8 190.515 158.013 190.215 158.305L190.099 158.41V158.413H190.743V158.576H189.828Z" fill="#C1E3FE"/>
<path d="M191.91 157.846C191.91 158.334 191.729 158.601 191.411 158.601C191.133 158.601 190.941 158.338 190.938 157.865C190.938 157.384 191.144 157.121 191.437 157.121C191.74 157.121 191.91 157.388 191.91 157.846ZM191.133 157.868C191.133 158.24 191.249 158.453 191.426 158.453C191.625 158.453 191.718 158.222 191.718 157.857C191.718 157.503 191.628 157.272 191.426 157.272C191.256 157.272 191.133 157.478 191.133 157.868Z" fill="#C1E3FE"/>
<path d="M189.875 150.967C189.929 151.003 190.06 151.057 190.193 151.057C190.443 151.057 190.519 150.898 190.519 150.779C190.515 150.577 190.338 150.494 190.15 150.494H190.041V150.349H190.15C190.291 150.349 190.468 150.277 190.468 150.107C190.468 149.992 190.396 149.891 190.219 149.891C190.103 149.891 189.994 149.941 189.933 149.985L189.882 149.844C189.958 149.79 190.103 149.735 190.255 149.735C190.537 149.735 190.667 149.901 190.667 150.078C190.667 150.226 190.58 150.353 190.403 150.414V150.418C190.58 150.454 190.721 150.584 190.721 150.786C190.721 151.014 190.544 151.216 190.201 151.216C190.038 151.216 189.897 151.165 189.828 151.118L189.875 150.967Z" fill="#C1E3FE"/>
<path d="M191.91 150.458C191.91 150.946 191.729 151.213 191.411 151.213C191.133 151.213 190.941 150.949 190.938 150.476C190.938 149.996 191.144 149.732 191.437 149.732C191.74 149.732 191.91 149.999 191.91 150.458ZM191.133 150.48C191.133 150.852 191.249 151.065 191.426 151.065C191.625 151.065 191.718 150.834 191.718 150.469C191.718 150.115 191.628 149.884 191.426 149.884C191.256 149.884 191.133 150.09 191.133 150.48Z" fill="#C1E3FE"/>
<path d="M190.428 143.803V143.413H189.763V143.287L190.403 142.373H190.613V143.261H190.811V143.413H190.613V143.803H190.428ZM190.428 143.261V142.785C190.428 142.709 190.432 142.637 190.435 142.561H190.428C190.385 142.644 190.349 142.705 190.309 142.774L189.958 143.261V143.265H190.428V143.261Z" fill="#C1E3FE"/>
<path d="M191.91 143.07C191.91 143.557 191.729 143.824 191.411 143.824C191.133 143.824 190.941 143.564 190.938 143.088C190.938 142.607 191.144 142.344 191.437 142.344C191.74 142.347 191.91 142.615 191.91 143.07ZM191.133 143.091C191.133 143.463 191.249 143.676 191.426 143.676C191.625 143.676 191.718 143.445 191.718 143.081C191.718 142.727 191.628 142.496 191.426 142.496C191.256 142.496 191.133 142.705 191.133 143.091Z" fill="#C1E3FE"/>
<path d="M190.685 135.147H190.139L190.085 135.516C190.117 135.512 190.15 135.508 190.201 135.508C190.309 135.508 190.421 135.534 190.508 135.584C190.62 135.649 190.714 135.772 190.714 135.953C190.714 136.231 190.49 136.44 190.179 136.44C190.023 136.44 189.89 136.397 189.821 136.353L189.868 136.205C189.926 136.242 190.045 136.285 190.175 136.285C190.36 136.285 190.515 136.166 190.515 135.974C190.511 135.79 190.388 135.657 190.103 135.657C190.02 135.657 189.958 135.664 189.904 135.671L189.995 134.985H190.681V135.147H190.685Z" fill="#C1E3FE"/>
<path d="M191.91 135.685C191.91 136.172 191.729 136.44 191.411 136.44C191.133 136.44 190.941 136.176 190.938 135.703C190.938 135.223 191.144 134.959 191.437 134.959C191.74 134.959 191.91 135.23 191.91 135.685ZM191.133 135.707C191.133 136.079 191.249 136.292 191.426 136.292C191.625 136.292 191.719 136.061 191.719 135.696C191.719 135.342 191.628 135.111 191.426 135.111C191.256 135.111 191.133 135.317 191.133 135.707Z" fill="#C1E3FE"/>
<path d="M190.645 127.733C190.605 127.73 190.555 127.733 190.5 127.74C190.197 127.791 190.034 128.015 190.002 128.25H190.009C190.078 128.159 190.197 128.083 190.356 128.083C190.609 128.083 190.79 128.268 190.79 128.546C190.79 128.809 190.613 129.051 190.313 129.051C190.005 129.051 189.807 128.813 189.807 128.441C189.807 128.159 189.908 127.935 190.049 127.795C190.168 127.679 190.327 127.607 190.508 127.582C190.566 127.574 190.613 127.571 190.649 127.571V127.733H190.645ZM190.591 128.56C190.591 128.354 190.475 128.232 190.294 128.232C190.179 128.232 190.07 128.304 190.016 128.408C190.002 128.43 189.995 128.459 189.995 128.495C189.998 128.73 190.107 128.903 190.309 128.903C190.479 128.903 190.591 128.766 190.591 128.56Z" fill="#C1E3FE"/>
<path d="M191.91 128.297C191.91 128.784 191.729 129.051 191.411 129.051C191.133 129.051 190.941 128.788 190.938 128.315C190.938 127.834 191.144 127.571 191.437 127.571C191.74 127.574 191.91 127.842 191.91 128.297ZM191.133 128.318C191.133 128.69 191.249 128.903 191.426 128.903C191.625 128.903 191.718 128.672 191.718 128.307C191.718 127.953 191.628 127.726 191.426 127.726C191.256 127.722 191.133 127.932 191.133 128.318Z" fill="#C1E3FE"/>
<path d="M198.802 171.186H198.799L198.578 171.305L198.546 171.175L198.82 171.027H198.965V172.284H198.802V171.186Z" fill="#C1E3FE"/>
<path d="M209.815 172.28V172.175L209.948 172.045C210.27 171.739 210.415 171.58 210.415 171.388C210.415 171.262 210.353 171.143 210.165 171.143C210.05 171.143 209.956 171.2 209.898 171.247L209.843 171.128C209.93 171.056 210.053 171.002 210.198 171.002C210.469 171.002 210.581 171.186 210.581 171.367C210.581 171.598 210.411 171.785 210.147 172.042L210.046 172.136V172.139H210.61V172.28H209.815Z" fill="#C1E3FE"/>
<path d="M221.235 172.085C221.282 172.118 221.394 172.165 221.514 172.165C221.734 172.165 221.799 172.027 221.799 171.923C221.796 171.746 221.64 171.67 221.474 171.67H221.38V171.543H221.474C221.597 171.543 221.756 171.478 221.756 171.33C221.756 171.229 221.691 171.143 221.535 171.143C221.434 171.143 221.337 171.186 221.286 171.226L221.243 171.103C221.308 171.056 221.434 171.005 221.571 171.005C221.817 171.005 221.933 171.153 221.933 171.305C221.933 171.435 221.857 171.543 221.702 171.601V171.605C221.857 171.637 221.983 171.753 221.983 171.926C221.983 172.128 221.828 172.302 221.524 172.302C221.384 172.302 221.261 172.258 221.199 172.219L221.235 172.085Z" fill="#C1E3FE"/>
<path d="M233.101 172.28V171.937H232.519V171.825L233.079 171.024H233.263V171.804H233.44V171.937H233.263V172.28H233.101ZM233.101 171.807V171.388C233.101 171.323 233.104 171.258 233.108 171.19H233.101C233.061 171.262 233.032 171.316 232.996 171.374L232.689 171.8V171.804H233.101V171.807Z" fill="#C1E3FE"/>
<path d="M244.702 171.168H244.222L244.175 171.489C244.203 171.486 244.229 171.482 244.276 171.482C244.373 171.482 244.467 171.504 244.547 171.551C244.644 171.605 244.728 171.713 244.728 171.872C244.728 172.118 244.532 172.302 244.261 172.302C244.124 172.302 244.008 172.262 243.947 172.226L243.99 172.096C244.041 172.129 244.146 172.165 244.258 172.165C244.417 172.165 244.554 172.06 244.554 171.894C244.55 171.731 244.446 171.616 244.193 171.616C244.12 171.616 244.066 171.623 244.019 171.63L244.102 171.027H244.702V171.168Z" fill="#C1E3FE"/>
<path d="M250.604 124.31H193.092V169.5H250.604V124.31Z" stroke="#C1E3FE" stroke-width="0.2945" stroke-miterlimit="10"/>
<path d="M193.092 161.97H250.604" stroke="#C1E3FE" stroke-width="0.2945" stroke-miterlimit="10"/>
<path d="M193.092 154.438H250.604" stroke="#C1E3FE" stroke-width="0.2945" stroke-miterlimit="10"/>
<path d="M193.092 146.905H250.604" stroke="#C1E3FE" stroke-width="0.2945" stroke-miterlimit="10"/>
<path d="M193.092 139.375H250.604" stroke="#C1E3FE" stroke-width="0.2945" stroke-miterlimit="10"/>
<path d="M193.092 131.843H250.604" stroke="#C1E3FE" stroke-width="0.2945" stroke-miterlimit="10"/>
<path d="M239.104 124.31V169.5" stroke="#C1E3FE" stroke-width="0.2945" stroke-miterlimit="10"/>
<path d="M227.6 124.31V169.5" stroke="#C1E3FE" stroke-width="0.2945" stroke-miterlimit="10"/>
<path d="M216.1 124.31V169.5" stroke="#C1E3FE" stroke-width="0.2945" stroke-miterlimit="10"/>
<path d="M204.596 124.31V169.5" stroke="#C1E3FE" stroke-width="0.2945" stroke-miterlimit="10"/>
<path d="M200.223 150.274H197.465V169.5H200.223V150.274Z" fill="#0451DB"/>
<path d="M211.712 150.274H208.958V169.5H211.712V150.274Z" fill="#C2DEFF"/>
<path d="M223.209 150.274H220.451V169.5H223.209V150.274Z" fill="#7AB6FE"/>
<path d="M234.695 150.274H231.941V169.5H234.695V150.274Z" fill="#0451DB"/>
<path d="M246.191 150.274H243.434V169.5H246.191V150.274Z" fill="#7AB6FE"/>
<path d="M200.223 146.905H197.465V150.274H200.223V146.905Z" fill="#0451DB"/>
<path d="M211.712 135.45H208.958V150.274H211.712V135.45Z" fill="#C2DEFF"/>
<path d="M234.695 137.241H231.941V150.274H234.695V137.241Z" fill="#0451DB"/>
<path d="M246.191 126.09H243.434V150.274H246.191V126.09Z" fill="#7AB6FE"/>
<path d="M206.425 139.376C206.425 141.084 205.037 142.47 203.324 142.47C201.614 142.47 200.223 141.084 200.223 139.376C200.223 137.664 201.611 136.274 203.324 136.274C205.037 136.274 206.425 137.664 206.425 139.376Z" fill="#C2DEFF"/>
<path d="M202.727 140.271V139.737H201.813V139.56L202.691 138.303H202.98V139.524H203.255V139.733H202.98V140.267H202.727V140.271ZM202.727 139.527V138.87C202.727 138.765 202.731 138.664 202.738 138.559H202.727C202.666 138.675 202.619 138.758 202.565 138.848L202.084 139.516V139.524H202.727V139.527Z" fill="#ECF6F8"/>
<path d="M204.636 138.53H203.884L203.808 139.036C203.855 139.029 203.895 139.025 203.967 139.025C204.119 139.025 204.27 139.058 204.39 139.13C204.545 139.217 204.672 139.386 204.672 139.635C204.672 140.018 204.364 140.307 203.938 140.307C203.725 140.307 203.54 140.246 203.446 140.188L203.512 139.986C203.595 140.033 203.754 140.094 203.931 140.094C204.18 140.094 204.397 139.932 204.397 139.668C204.393 139.415 204.224 139.231 203.83 139.231C203.718 139.231 203.631 139.242 203.555 139.253L203.681 138.31H204.625V138.53H204.636Z" fill="#ECF6F8"/>
<path d="M206.425 139.375H208.958" stroke="#C2DEFF" stroke-width="0.718" stroke-miterlimit="10"/>
<path d="M240.94 131.843C240.94 133.554 239.552 134.941 237.839 134.941C236.126 134.941 234.738 133.554 234.738 131.843C234.738 130.131 236.126 128.744 237.839 128.744C239.552 128.744 240.94 130.131 240.94 131.843Z" fill="#7AB6FE"/>
<path d="M237.597 130.998H236.845L236.769 131.504C236.816 131.496 236.856 131.493 236.928 131.493C237.08 131.493 237.232 131.525 237.351 131.598C237.506 131.684 237.633 131.854 237.633 132.103C237.633 132.486 237.326 132.775 236.899 132.775C236.686 132.775 236.502 132.713 236.408 132.652L236.473 132.45C236.556 132.497 236.715 132.558 236.892 132.558C237.141 132.558 237.358 132.396 237.358 132.132C237.355 131.879 237.185 131.695 236.791 131.695C236.679 131.695 236.592 131.706 236.516 131.717L236.643 130.774H237.586V130.998H237.597Z" fill="#ECF6F8"/>
<path d="M237.951 132.24C237.951 131.991 238.099 131.817 238.341 131.713L238.338 131.705C238.117 131.604 238.027 131.435 238.027 131.265C238.027 130.954 238.291 130.741 238.634 130.741C239.017 130.741 239.205 130.98 239.205 131.225C239.205 131.391 239.122 131.572 238.88 131.684V131.695C239.126 131.792 239.277 131.965 239.277 132.204C239.277 132.547 238.985 132.774 238.609 132.774C238.2 132.774 237.951 132.529 237.951 132.24ZM239.014 132.229C239.014 131.991 238.847 131.875 238.58 131.799C238.349 131.864 238.226 132.016 238.226 132.204C238.218 132.402 238.367 132.579 238.62 132.579C238.858 132.579 239.014 132.431 239.014 132.229ZM238.28 131.247C238.28 131.442 238.428 131.55 238.656 131.608C238.826 131.55 238.956 131.431 238.956 131.25C238.956 131.091 238.862 130.929 238.623 130.929C238.399 130.933 238.28 131.077 238.28 131.247Z" fill="#ECF6F8"/>
<path d="M240.94 131.843H243.473" stroke="#5BA9DD" stroke-width="0.718" stroke-miterlimit="10"/>
<path d="M244.12 140.672C244.12 140.672 240.091 167.001 235.551 178.618C231.532 188.909 226.306 175.743 226.306 175.743L233.108 131.565L245.837 130.326C245.837 130.326 246.719 130.633 244.12 140.672Z" fill="#163F59"/>
<path d="M235.775 132.641L234.564 149.588L236.802 150.841C236.802 150.841 238.616 175.938 239.06 177.199C241.605 184.421 247.698 179.925 248.49 177.484C249.281 175.043 250.308 157.074 249.748 143.987C249.187 130.9 249.187 130.9 249.187 130.9L235.775 132.641Z" fill="#194866"/>
<path d="M239.454 170.446C239.454 170.446 238.526 174.942 238.854 183.403C239.064 188.765 239.888 202.953 241.099 213.505C241.175 214.151 246.448 213.548 246.448 213.548C246.448 213.548 248.938 179.163 249.079 172.515C249.122 170.514 243.575 165.625 239.454 170.446Z" fill="#194866"/>
<path d="M228.428 175.104C228.428 175.104 229.92 175.555 234.63 175.624C239.324 175.693 229.385 213.642 229.385 213.642L222.667 211.338L226.66 173.262L228.428 175.104Z" fill="#163F59"/>
<path d="M243.903 75.4655C243.903 75.4655 240.141 75.7833 238.966 74.3533C237.792 72.9233 241.243 73.3891 239.686 74.4219C238.128 75.4547 234.651 73.5986 235.58 71.8616C236.509 70.1247 237.969 69.3808 239.382 70.3955C240.795 71.4102 239.639 71.988 239.104 70.995C238.573 70.0019 240.719 67.586 242.526 71.0311C244.334 74.4761 243.358 74.7397 242.74 72.4575C242.122 70.1788 243.567 68.738 244.644 71.4175C245.721 74.0969 244.066 75.4186 243.654 74.2197C243.242 73.0208 246.759 70.4966 247.026 72.7825C247.297 75.0683 247.51 77.8092 245.772 77.8417C244.034 77.8742 248.096 71.8833 249.686 76.7836C251.276 81.6875 248.071 80.1925 247.948 79.0875C247.825 77.9861 253.803 80.0408 249.166 81.6442C244.525 83.2475 246.267 81.2903 245.88 80.1708C245.49 79.055 249.787 81.9981 247.456 84.3778C245.125 86.7539 242.906 86.3062 243.369 83.8217C243.831 81.3372 246.459 82.6372 245.62 84.6992C244.778 86.7612 246.072 87.9853 246.567 88.202C247.062 88.4187 243.365 89.9426 242.649 87.9492C241.937 85.9631 240.951 76.1805 243.903 75.4655Z" fill="#163F59"/>
<path d="M238.258 73.6708L236.118 76.4333L236.14 77.4769L234.282 79.9903L235.11 81.4275L234.723 85.815C234.723 85.815 234.402 88.1767 236.617 87.3137C238.833 86.4506 238.833 86.4506 238.833 86.4506C238.833 86.4506 240.701 92.3368 239.411 93.384C238.121 94.4312 237.206 95.6229 237.73 96.2729C238.211 96.8651 239.476 96.4318 240.777 96.2874C243.094 96.031 244.63 96.4679 245.62 96.5148C246.336 96.551 245.342 96.1176 245.147 94.6371C244.952 93.1709 243.734 84.5114 243.734 84.5114C243.734 84.5114 244.128 84.6667 244.673 84.432C245.223 84.1973 247.687 82.3086 246.867 81.2181C246.047 80.1275 244.254 80.6114 243.658 81.6478C243.061 82.6806 241.977 81.5756 242.241 79.3222C242.505 77.0653 247.015 75.7472 241.872 75.0502C238.421 74.5916 238.258 73.6708 238.258 73.6708Z" fill="#E9D6B8"/>
<path d="M219.432 98.2409L207.614 87.4436C207.614 87.4436 206.829 88.3933 207.126 89.26C207.935 91.6109 211.22 95.1209 213.06 97.1106C215.576 99.8298 218.803 102.015 218.803 102.015L219.432 98.2409Z" fill="#E9D6B8"/>
<path d="M207.599 90.3542L206.106 89.0867C206.106 89.0867 205.369 88.5161 204.755 87.57C204.14 86.6203 204.491 85.7031 205.286 84.9447C206.085 84.1864 206.681 84.0997 206.681 84.0997C206.681 84.0997 207.968 84.6703 207.805 85.8186C207.639 86.967 208.799 89.502 208.362 89.6825C207.917 89.8667 207.599 90.3542 207.599 90.3542Z" fill="#E9D6B8"/>
<path d="M207.234 84.3272L205.749 82.7275L204.299 81.3047L204.115 81.7236L205.001 82.8755L205.474 85.2878L206.059 84.97L207.234 84.3272Z" fill="#E9D6B8"/>
<path d="M204.491 83.4677L202.893 82.6335L202.604 82.9838L204.028 84.0924L205.062 85.7175L206.059 84.97L204.491 83.4677Z" fill="#E9D6B8"/>
<path d="M202.304 83.7061L203.616 84.2911L204.542 84.5583L205.178 85.4105L204.585 86.2555L203.927 85.3166L202.326 84.2549L202.304 83.7061Z" fill="#E9D6B8"/>
<path d="M202.012 85.118L204.523 85.7608L204.935 86.3928L204.563 86.9958L203.544 86.2917L202.192 85.5297L202.012 85.118Z" fill="#E9D6B8"/>
<path d="M209.103 90.3217C208.289 89.4984 208.47 88.2706 208.47 88.2706C208.47 88.2706 208.839 85.2047 208.391 84.6992C207.939 84.1936 207.657 82.8828 207.657 82.8828C207.657 82.8828 207.274 82.3953 207.108 83.6339C207.003 84.4428 207.155 85.1686 207.155 85.1686C207.155 85.1686 206.327 86.8406 206.388 87.3823C206.515 88.4981 208.528 90.4662 208.528 90.4662C208.528 90.4662 209.204 90.4301 209.103 90.3217Z" fill="#E9D6B8"/>
<path d="M233.571 95.1643L228.091 96.4824L222.941 97.4574L210.165 88.8845L207.209 93.9798L221.965 105.944L239.227 103.719C239.227 103.719 241.937 99.5085 243.264 94.4024C244.229 90.6937 234.662 95.009 233.571 95.1643Z" fill="#12344A"/>
<path d="M232.403 116.026L217.592 116.463C217.592 116.463 228.568 123.064 232.555 119.735C236.545 116.405 232.403 116.026 232.403 116.026Z" fill="#E9D6B8"/>
<path d="M239.433 92.669L240.051 93.2612L244.626 90.6215L251.269 95.4315C251.269 95.4315 252.53 99.9057 252.595 108.861C252.661 117.839 251.898 150.032 251.898 150.032L234.778 151.422L232.967 139.18L231.713 150.169L229.624 148.501C229.624 148.504 234.257 96.7171 239.433 92.669Z" fill="#12344A"/>
<path d="M213.017 118.94L214.433 119.435L220.249 117.521L217.975 113.433L217.213 114.636L215.182 114.556L212.626 118.124L213.017 118.94Z" fill="#E9D6B8"/>
<path d="M241.739 93.0084L239.433 92.6689L237.058 95.5868L236.726 104.134L239.23 99.6818L242.295 94.814L241.739 93.0084Z" fill="#D1DBEA"/>
<path d="M239.892 92.8315L239.577 95.7529L245.953 92.1779L245.215 90.087L239.892 92.8315Z" fill="#B0BFDE"/>
<path d="M239.577 91.9973L239.892 92.8315L238.641 95.5471L238.533 93.1457L239.577 91.9973Z" fill="#B0BFDE"/>
<path d="M245.494 90.3651L239.646 96.9049L236.722 104.138L233.798 117.492L240.618 100.382L239.921 99.8263L241.034 99.1294C241.034 99.1294 243.26 95.9299 245.071 94.2615C246.882 92.5932 246.882 92.3151 246.882 92.3151L245.494 90.3651Z" fill="#194866"/>
<path d="M249.072 95.092C249.072 95.092 252.531 96.8687 250.868 102.004C248.042 110.754 242.143 117.961 241.03 119.406C239.921 120.85 236.209 123.848 233.451 123.187C231.713 122.771 222.385 122.353 222.385 122.353L221.969 116.094L232.403 116.022L233.419 115.831C233.419 115.831 237.004 110.147 240 104.611C243 99.0787 249.072 95.092 249.072 95.092Z" fill="#194866"/>
<path d="M237.698 102.047C237.698 102.047 238.37 93.2323 238.869 92.7014C239.368 92.1706 237.557 93.7017 237.557 93.7017L237.055 95.5868L236.444 97.8726L235.19 112.061L237.698 102.047Z" fill="#194866"/>
<path d="M244.276 136.96H236.133V138.733H244.276V136.96Z" fill="#194866"/>
<path d="M170.644 89.6862L178.129 88.2129C178.129 88.2129 183.572 95.316 185.513 104.228C187.457 113.141 188.787 130.261 190.381 137.335C191.971 144.409 192.38 146.475 191.274 146.843C187.23 148.19 173.037 146.262 165.743 148.606C158.45 150.946 175.299 148.299 173.181 134.663C171.063 121.02 170.644 89.6862 170.644 89.6862Z" fill="#12344A"/>
<path d="M175.925 94.2327C175.925 94.2327 171.367 96.5871 178.324 110.291C185.274 123.992 188.094 121.894 188.094 121.894L191.878 121.053L197.798 111.194L193.251 108.103L192.503 108.529C192.503 108.529 191.408 108.215 191.129 107.251C190.851 106.283 188.553 102.325 185.567 94.1966C180.999 81.7381 176.799 93.7741 175.925 94.2327Z" fill="#163F59"/>
<path d="M196.775 111.487C196.775 111.487 205.188 115.213 210.129 115.351C213.436 115.441 206.97 119.655 200.295 120.941C193.623 122.226 190.985 122.143 189.333 119.897C187.681 117.651 196.775 111.487 196.775 111.487Z" fill="#E2C59C"/>
<path d="M188.198 110.187L190.36 108.284L191.27 107.576C191.668 108.284 192.503 108.522 192.503 108.522L190.62 109.62L188.65 111.335L186.828 114.419L188.198 110.187Z" fill="#194866"/>
<path d="M186.464 127.86L168.573 128.954L159.083 104.734C159.083 104.734 153.018 90.1159 162.23 89.1554C171.443 88.1984 182.314 89.0109 182.314 89.0109C182.314 89.0109 185.712 92.5426 186.464 127.86Z" fill="#7DC2F5"/>
<path d="M173.922 91.6001C173.922 91.6001 184.483 105.738 185.032 123.223C185.076 124.599 183.8 125.801 183.8 125.801L181.508 124.198C181.508 124.198 178.473 104.81 173.922 91.6001Z" fill="#163F59"/>
<path d="M173.138 91.1993L172.954 94.3121L166.893 90.0799L167.453 88.8738L173.138 91.1993Z" fill="#8DCFFF"/>
<path d="M174.638 89.0759L175.574 89.7404L175.896 93.0013L173.496 91.239L174.638 89.0759Z" fill="#8DCFFF"/>
<path d="M179.499 76.4802C179.506 76.7149 180.504 78.6866 180.684 79.0514C180.869 79.4161 181.122 79.8783 181.064 80.0155C181.002 80.1564 180.648 80.5717 180.486 80.7269C180.323 80.8822 179.712 81.5178 179.517 80.5536C179.325 79.5894 179.499 76.4802 179.499 76.4802Z" fill="#E9D6B8"/>
<path d="M169.65 76.1047C168.924 76.1336 168.356 76.7439 168.382 77.4697C168.411 78.1992 169.021 78.7661 169.752 78.7372" fill="#E9D6B8"/>
<path d="M185.816 128.437L189.373 165.231L181.718 170.327C181.718 170.327 176.149 161.678 174.587 150.173C173.019 138.671 185.816 128.437 185.816 128.437Z" fill="#163F59"/>
<path d="M186.554 127.701L171.616 170.392L168.776 175.086L159.491 212.613L154.764 211.277C154.764 211.277 151.5 190.867 155.645 182.381C159.787 173.894 161.826 169.265 161.826 169.265L169.065 127.56L186.554 127.701Z" fill="#194866"/>
<path d="M187.66 209.843C185.589 202.523 181.349 188.942 180.84 184.168C179.904 175.328 180.796 169.048 180.796 169.048L189.369 165.235L192.973 209.403L187.66 209.843Z" fill="#163F59"/>
<path d="M209.265 115.968L214.397 112.397L217.903 112.505C217.903 112.505 218.366 113.285 217.227 113.978C216.092 114.672 214.611 114.975 214.611 114.975L212.587 118.608C212.587 118.608 214.954 119.753 215.529 119.413C216.103 119.07 218.355 117.766 218.355 117.766C218.355 117.766 217.238 120.778 215.789 120.897C214.34 121.017 212.8 121.147 211.698 121.056C210.595 120.966 209.977 117.918 208.846 117.463C207.711 117.008 209.265 115.968 209.265 115.968Z" fill="#E2C59C"/>
<path d="M165.447 88.2671C165.447 88.2671 173.77 105.207 174.125 109.464C174.479 113.722 178.227 132.875 172.538 150.574C171.721 153.109 159.476 148.324 159.476 148.324C161.688 143.377 163.531 112.194 159.086 104.737C151.861 92.6149 151.872 91.3041 165.447 88.2671Z" fill="#163F59"/>
<path d="M168.349 87.7904C168.349 87.7904 167.164 91.7013 168.367 94.6985C169.571 97.6958 174.558 111.815 174.558 111.815C174.558 111.815 169.39 101.285 166.372 99.393C163.354 97.5008 167.616 97.1469 167.616 97.1469H164.753L163.925 90.069L165.443 88.2743L168.349 87.7904Z" fill="#194866"/>
<path d="M173.015 87.5232C173.015 87.5232 181.559 88.1949 182.784 88.8557C184.006 89.5165 186.973 103.398 187.038 106.092C187.103 108.786 188.48 127.253 189.254 130.842C190.027 134.432 187.02 124.992 186.258 119.655C185.495 114.318 182.025 99.3605 178.841 95.493C175.657 91.6291 175.762 90.506 175.762 90.506L173.015 87.5232Z" fill="#194866"/>
<path d="M179.224 71.2478C179.224 71.2478 181.545 83.894 178.794 85.6273C178.675 85.6995 176.629 85.9595 175.639 87.0104C174.707 88.0034 174.746 89.029 174.421 89.4623C174.316 89.6032 173.973 90.4951 173.731 90.7479C172.722 91.7879 171.743 90.6468 171.103 90.4193C169.553 89.8632 167.988 89.5418 168.006 88.8882C168.028 88.1732 169.795 83.3631 169.636 82.417C169.177 79.64 165.725 74.7289 170.348 71.1828C171.692 70.1536 178.809 70.4533 179.224 71.2478Z" fill="#E9D6B8"/>
<path d="M178.805 85.4323C178.805 85.4323 178.389 85.2481 177.634 84.8329C177.385 84.6956 176.647 84.302 176.246 84.2118C174.472 83.8218 174.529 83.9843 173.503 83.5365C172.328 83.0309 170.073 81.4601 170.073 81.4601C170.073 81.4601 170.868 82.7059 171.175 83.2079C171.754 84.1504 172.552 84.562 173.254 84.7895C176.304 85.7826 176.13 86.0173 176.532 85.9993C176.557 85.9993 176.767 85.8693 178.805 85.4323Z" fill="#E2C59C"/>
<path d="M170.088 70.6591C172.303 68.608 177.11 68.72 180.612 71.5583C180.612 71.5583 180.543 72.3275 179.466 73.0317C179.466 73.0317 177.374 70.7494 174.327 71.3489C171.128 71.9808 173.478 73.3603 172.791 74.2089C172.213 74.9203 171.667 75.5306 171.667 75.5306L171.327 77.365L170.489 77.5275C170.489 77.5275 169.878 75.6353 169.495 76.2383C169.032 76.9714 169.379 78.4014 169.408 78.6036C169.437 78.8095 169.495 79.1489 169.401 79.2139C169.325 79.2645 169.647 80.355 169.56 82.2509C169.162 82.2906 168.627 81.7814 168.291 80.6114C167.525 77.9789 167.384 73.1617 170.088 70.6591Z" fill="#163F59"/>
<path d="M178.722 80.1673C178.722 80.1673 180.225 79.6653 180.384 79.6978C180.547 79.7267 180.941 79.7447 180.963 79.8964C180.984 80.0517 180.778 80.467 180.052 80.9545C179.875 81.0737 179.954 80.6764 178.722 80.1673Z" fill="#E2C59C"/>
<path d="M175.187 87.8193L180.565 93.6874L179.539 94.2472L181.028 94.9586C181.028 94.9586 184.349 104.806 184.714 106.326C185.079 107.843 186.814 118.658 187.02 121.143C187.226 123.627 183.63 104.748 181.765 100.971C179.9 97.1938 175.335 92.4524 175.393 91.7338C175.451 91.0152 174.717 87.8988 174.717 87.8988" fill="#163F59"/>
<path d="M169.452 115.105L170.044 115.73L174.179 124.718L173.583 124.093L169.452 115.105Z" fill="#B5B5B5"/>
<path d="M169.452 115.105L170.044 115.73L174.179 124.718L173.583 124.093L169.452 115.105Z" fill="#A3ABAE"/>
<path d="M173.583 124.093L174.179 124.718L176.908 130.651L176.315 130.026L173.583 124.093Z" fill="#A3ABAE"/>
<path d="M173.583 124.093L174.175 124.718C174.197 124.75 174.222 124.776 174.244 124.801L173.651 124.173C173.63 124.151 173.608 124.122 173.583 124.093Z" fill="#9EA4A7"/>
<path d="M166.932 140.759L167.525 141.387C166.459 140.264 164.504 140.152 162.483 141.076L161.887 140.452C163.911 139.527 165.863 139.639 166.932 140.759Z" fill="#959B9D"/>
<path d="M161.887 140.452L162.483 141.076C162.115 141.246 161.743 141.448 161.374 141.687L160.778 141.058C161.146 140.824 161.518 140.618 161.887 140.452Z" fill="#98A0A2"/>
<path d="M160.778 141.062L161.374 141.69C161.258 141.766 161.139 141.842 161.027 141.925C160.821 142.073 160.626 142.221 160.431 142.384L159.838 141.755C160.026 141.596 160.228 141.445 160.431 141.3C160.55 141.217 160.662 141.138 160.778 141.062Z" fill="#9EA4A7"/>
<path d="M159.838 141.755L160.431 142.384C160.123 142.64 159.834 142.911 159.563 143.196L158.97 142.572C159.238 142.283 159.527 142.012 159.838 141.755Z" fill="#A1A9AC"/>
<path d="M158.97 142.568L159.563 143.193C159.223 143.554 158.916 143.929 158.645 144.319L158.052 143.695C158.323 143.305 158.627 142.925 158.97 142.568Z" fill="#A6AEB1"/>
<path d="M158.052 143.694L158.645 144.319C158.461 144.583 158.295 144.854 158.146 145.128C157.64 146.056 157.348 147.013 157.319 147.894L156.722 147.266C156.755 146.385 157.048 145.428 157.554 144.5C157.702 144.229 157.868 143.958 158.052 143.694Z" fill="#AAB3B6"/>
<path d="M156.726 147.266L157.322 147.894C157.308 148.266 157.34 148.624 157.424 148.963L156.831 148.335C156.744 147.999 156.712 147.638 156.726 147.266Z" fill="#A6AEB1"/>
<path d="M156.827 148.338L157.42 148.967C157.467 149.169 157.536 149.364 157.622 149.544C157.651 149.609 157.684 149.671 157.713 149.729L157.12 149.104C157.087 149.043 157.055 148.985 157.026 148.92C156.943 148.732 156.874 148.537 156.827 148.338Z" fill="#A1A9AC"/>
<path d="M157.12 149.1L157.713 149.725C157.832 149.938 157.969 150.13 158.128 150.299L157.532 149.671C157.377 149.508 157.236 149.313 157.12 149.1Z" fill="#9EA4A7"/>
<path d="M186.496 117.738L187.089 118.362C187.251 118.532 187.392 118.723 187.508 118.944L186.912 118.319C186.8 118.099 186.659 117.907 186.496 117.738Z" fill="#9EA4A7"/>
<path d="M186.915 118.315L187.512 118.94C187.544 119.001 187.577 119.059 187.605 119.124C187.692 119.308 187.754 119.503 187.804 119.702L187.208 119.074C187.161 118.875 187.096 118.68 187.009 118.496C186.98 118.434 186.948 118.373 186.915 118.315Z" fill="#A1A9AC"/>
<path d="M187.204 119.074L187.801 119.702C187.884 120.038 187.916 120.399 187.902 120.771L187.306 120.146C187.324 119.774 187.287 119.413 187.204 119.074Z" fill="#A6AEB1"/>
<path d="M187.309 120.143L187.905 120.767C187.873 121.652 187.58 122.609 187.074 123.537C186.926 123.811 186.76 124.082 186.575 124.346L185.983 123.721C186.167 123.458 186.333 123.187 186.481 122.912C186.984 121.984 187.277 121.027 187.309 120.143Z" fill="#AAB3B6"/>
<path d="M185.979 123.725L186.572 124.35C186.301 124.74 185.994 125.119 185.654 125.48L185.061 124.852C185.401 124.49 185.708 124.111 185.979 123.725Z" fill="#A6AEB1"/>
<path d="M185.061 124.852L185.654 125.48C185.386 125.762 185.097 126.036 184.786 126.292L184.194 125.668C184.501 125.408 184.79 125.137 185.061 124.852Z" fill="#A1A9AC"/>
<path d="M184.194 125.664L184.786 126.289C184.598 126.444 184.4 126.599 184.197 126.74C184.082 126.823 183.966 126.899 183.85 126.975L183.254 126.35C183.37 126.274 183.485 126.199 183.601 126.115C183.807 125.971 184.002 125.819 184.194 125.664Z" fill="#9EA4A7"/>
<path d="M183.258 126.35L183.854 126.975C183.489 127.213 183.12 127.412 182.755 127.581L182.159 126.957C182.524 126.787 182.889 126.588 183.258 126.35Z" fill="#98A0A2"/>
<path d="M182.159 126.957L182.755 127.581C181.548 128.134 180.363 128.315 179.376 128.141C179.087 128.091 178.74 128.145 178.389 128.307L177.797 127.683C178.147 127.52 178.491 127.47 178.78 127.516C179.766 127.693 180.948 127.513 182.159 126.957Z" fill="#959B9D"/>
<path d="M177.793 127.683L178.386 128.307C178.281 128.354 178.173 128.412 178.071 128.481L177.475 127.856C177.58 127.787 177.688 127.73 177.793 127.683Z" fill="#98A0A2"/>
<path d="M177.475 127.856L178.071 128.481C178.035 128.502 178.003 128.524 177.97 128.549C177.909 128.593 177.851 128.636 177.797 128.683L177.2 128.058C177.255 128.011 177.316 127.964 177.377 127.921C177.41 127.899 177.442 127.878 177.475 127.856Z" fill="#9EA4A7"/>
<path d="M177.2 128.058L177.797 128.683C177.706 128.759 177.62 128.838 177.54 128.921L176.947 128.297C177.023 128.214 177.11 128.134 177.2 128.058Z" fill="#A1A9AC"/>
<path d="M176.947 128.297L177.54 128.921C177.439 129.026 177.348 129.138 177.269 129.253L176.676 128.629C176.756 128.517 176.846 128.405 176.947 128.297Z" fill="#A6AEB1"/>
<path d="M176.673 128.629L177.265 129.253C177.211 129.333 177.164 129.412 177.117 129.495C176.965 129.77 176.879 130.055 176.871 130.319L176.275 129.694C176.286 129.434 176.373 129.145 176.521 128.871C176.571 128.788 176.622 128.712 176.673 128.629Z" fill="#AAB3B6"/>
<path d="M176.279 129.694L176.875 130.319C176.871 130.431 176.879 130.539 176.904 130.64L176.311 130.015C176.286 129.914 176.279 129.806 176.279 129.694Z" fill="#A6AEB1"/>
<path d="M176.311 130.015L176.904 130.64C176.904 130.644 176.908 130.647 176.908 130.651L176.315 130.023C176.311 130.023 176.311 130.019 176.311 130.015Z" fill="#A1A9AC"/>
<path d="M161.334 150.845L161.93 151.469C161.977 151.52 162.017 151.574 162.05 151.635L161.457 151.011C161.424 150.949 161.381 150.895 161.334 150.845Z" fill="#9EA4A7"/>
<path d="M161.457 151.014L162.05 151.639C162.061 151.657 162.071 151.675 162.079 151.69C162.104 151.751 162.122 151.812 162.14 151.874L161.544 151.246C161.529 151.184 161.511 151.123 161.486 151.061C161.475 151.047 161.468 151.032 161.457 151.014Z" fill="#A1A9AC"/>
<path d="M161.544 151.249L162.14 151.877C162.144 151.888 162.144 151.903 162.147 151.913L161.551 151.285C161.551 151.274 161.547 151.263 161.544 151.249Z" fill="#A6AEB1"/>
<path d="M161.551 151.285L162.147 151.913C162.162 152.043 162.162 152.101 162.165 152.152L161.569 151.523C161.565 151.473 161.569 151.419 161.551 151.285Z" fill="#A6AEB1"/>
<path d="M161.573 151.527L162.169 152.155C162.05 152.722 161.999 152.849 161.934 152.979L161.338 152.35C161.403 152.22 161.453 152.094 161.573 151.527Z" fill="#AAB3B6"/>
<path d="M161.334 152.35L161.93 152.979C161.869 153.083 161.829 153.141 161.789 153.206L161.193 152.581C161.236 152.516 161.276 152.455 161.334 152.35Z" fill="#AAB3B6"/>
<path d="M161.02 152.813L161.612 153.437L149.277 162.198L148.684 161.57L161.02 152.813Z" fill="#AAB1B4"/>
<path d="M161.193 152.578L161.789 153.203C161.782 153.21 161.779 153.221 161.768 153.231L161.175 152.607C161.182 152.596 161.19 152.589 161.193 152.578Z" fill="#AAB3B6"/>
<path d="M161.175 152.607L161.768 153.232C161.71 153.311 161.667 153.376 161.612 153.438L161.02 152.813C161.074 152.748 161.117 152.69 161.175 152.607Z" fill="#A6AEB1"/>
<path d="M167.287 147.851L167.883 148.476C167.503 148.306 167.467 148.281 167.435 148.248L166.839 147.623C166.871 147.656 166.907 147.681 167.287 147.851Z" fill="#959B9D"/>
<path d="M167.89 147.836L168.483 148.461C168.382 148.483 168.309 148.494 168.244 148.497C168.103 148.505 167.988 148.497 167.879 148.476L167.283 147.851C167.388 147.873 167.507 147.883 167.648 147.873C167.72 147.869 167.789 147.858 167.89 147.836Z" fill="#959B9D"/>
<path d="M168.114 147.775L168.711 148.4C168.635 148.425 168.559 148.447 168.49 148.461L167.897 147.837C167.962 147.822 168.038 147.8 168.114 147.775Z" fill="#959B9D"/>
<path d="M180.446 139.018L181.042 139.643L168.707 148.4L168.114 147.775L180.446 139.018Z" fill="#AAB1B4"/>
<path d="M176.315 130.026L176.908 130.651L181.042 139.643L180.446 139.018L176.315 130.026Z" fill="#A3ABAE"/>
<path d="M187.009 118.5C186.015 116.333 182.871 116.235 179.998 118.276C178.758 119.157 177.771 120.294 177.128 121.475C176.904 121.89 176.72 122.309 176.582 122.728C176.543 122.847 176.488 122.967 176.427 123.082C176.235 123.432 175.95 123.765 175.581 124.025C174.797 124.584 173.951 124.595 173.586 124.093L169.452 115.105L137.69 137.657L148.685 161.57L161.02 152.813C161.078 152.74 161.128 152.675 161.193 152.578C161.237 152.516 161.276 152.455 161.334 152.35C161.403 152.22 161.453 152.094 161.573 151.523C161.569 151.469 161.573 151.419 161.555 151.285C161.537 151.209 161.518 151.137 161.486 151.065C161.316 150.696 160.933 150.538 160.481 150.574C158.92 150.736 157.604 150.176 157.026 148.916C156.459 147.685 156.708 146.053 157.554 144.5C158.197 143.315 159.187 142.178 160.431 141.297C163.307 139.256 166.448 139.354 167.442 141.521C168.006 142.748 167.757 144.377 166.835 146.071C166.582 146.533 166.502 147.017 166.669 147.381C166.701 147.454 166.741 147.511 166.839 147.62C166.871 147.652 166.907 147.678 167.287 147.847C167.391 147.869 167.511 147.88 167.652 147.869C167.717 147.862 167.785 147.855 167.89 147.833C167.963 147.818 168.038 147.797 168.111 147.771L180.446 139.014L176.311 130.023C176.225 129.683 176.308 129.264 176.524 128.867C176.716 128.52 177.009 128.185 177.374 127.921C177.858 127.574 178.371 127.444 178.776 127.513C180.157 127.762 181.92 127.307 183.601 126.115C184.844 125.234 185.831 124.097 186.478 122.916C187.324 121.36 187.573 119.727 187.009 118.5Z" fill="#0561FC"/>
<path d="M149.798 121.793L159.335 142.662C159.335 142.662 157.691 143.315 156.643 142.528C153.791 140.39 148.634 134.352 146.726 130.969C144.12 126.339 142.483 121.24 142.483 121.24L149.798 121.793Z" fill="#E9D6B8"/>
<path d="M157.008 142.969C157.568 143.828 160.738 144.456 160.738 144.456L162.74 141.795L161.334 141.911L160.145 139.74L157.232 141.145C157.232 141.145 156.668 142.441 157.008 142.969Z" fill="#E9D6B8"/>
<path d="M160.225 103.867L151.12 120.713L149.733 121.024L150.246 122.338L142.642 122.385L140.426 115.979L153.278 93.1963C153.278 93.1963 154.724 91.6471 157.438 90.4518C159.361 89.6032 164.536 97.1505 161.822 101.357C161.012 102.607 160.384 103.542 160.225 103.867Z" fill="#163F59"/>
<path d="M142.916 118.16C142.916 118.16 147.774 120.013 150.34 120.886L149.736 121.024L150.249 122.338L147.622 122.334L143.889 121.771L143.56 120.24L144.694 120.146L142.916 118.16Z" fill="#194866"/>
<path d="M135.375 15L135.743 15.65L137.319 24.0567L136.954 23.4067L135.375 15Z" fill="#B5B5B5"/>
<path d="M135.375 15L135.743 15.65L137.319 24.0567L136.954 23.4067L135.375 15Z" fill="#A3ABAE"/>
<path d="M136.954 23.4067L137.319 24.0567L138.36 29.6035L137.995 28.9534L136.954 23.4067Z" fill="#A3ABAE"/>
<path d="M136.954 23.4067L137.323 24.0567C137.333 24.0856 137.348 24.1145 137.362 24.1434L136.994 23.4934C136.979 23.4645 136.965 23.4356 136.954 23.4067Z" fill="#9EA4A7"/>
<path d="M127.868 35.9879L128.237 36.6379C127.579 35.4715 125.963 34.9696 124.073 35.3199L123.704 34.6698C125.595 34.3196 127.21 34.8215 127.868 35.9879Z" fill="#959B9D"/>
<path d="M123.704 34.6698L124.073 35.3198C123.73 35.3848 123.376 35.4787 123.014 35.5979L122.645 34.9479C123.007 34.8287 123.361 34.7348 123.704 34.6698Z" fill="#98A0A2"/>
<path d="M122.646 34.9479L123.014 35.5979C122.898 35.6376 122.786 35.6773 122.674 35.7207C122.472 35.8001 122.273 35.8868 122.082 35.977L121.717 35.327C121.908 35.2332 122.107 35.1501 122.309 35.0707C122.421 35.0309 122.533 34.9876 122.646 34.9479Z" fill="#9EA4A7"/>
<path d="M121.713 35.3307L122.078 35.9807C121.764 36.1324 121.464 36.2985 121.178 36.479L120.809 35.829C121.099 35.6521 121.399 35.4824 121.713 35.3307Z" fill="#A1A9AC"/>
<path d="M120.813 35.8326L121.182 36.4826C120.82 36.7138 120.484 36.9665 120.177 37.2338L119.812 36.5838C120.116 36.3165 120.452 36.0601 120.813 35.8326Z" fill="#A6AEB1"/>
<path d="M119.808 36.5837L120.173 37.2337C119.964 37.4179 119.769 37.6093 119.584 37.8043C118.966 38.476 118.518 39.2199 118.308 39.9493L117.94 39.2993C118.153 38.5663 118.598 37.826 119.216 37.1543C119.4 36.9593 119.599 36.7679 119.808 36.5837Z" fill="#AAB3B6"/>
<path d="M117.943 39.303L118.312 39.953C118.222 40.2635 118.175 40.5705 118.171 40.8702L117.802 40.2202C117.806 39.9205 117.853 39.6135 117.943 39.303Z" fill="#A6AEB1"/>
<path d="M117.802 40.2202L118.171 40.8702C118.171 41.0508 118.186 41.2277 118.218 41.3974C118.229 41.4588 118.243 41.5166 118.258 41.5744L117.889 40.9244C117.875 40.8666 117.86 40.8088 117.849 40.7511C117.817 40.5777 117.802 40.4008 117.802 40.2202Z" fill="#A1A9AC"/>
<path d="M117.889 40.9243L118.258 41.5743C118.312 41.7765 118.388 41.9679 118.486 42.1413L118.117 41.4913C118.019 41.3179 117.94 41.1302 117.889 40.9243Z" fill="#9EA4A7"/>
<path d="M149.116 20.785L149.481 21.435C149.582 21.612 149.658 21.8034 149.712 22.0092L149.347 21.3592C149.293 21.1534 149.213 20.962 149.116 20.785Z" fill="#9EA4A7"/>
<path d="M149.347 21.3592L149.712 22.0092C149.726 22.067 149.741 22.1248 149.752 22.1825C149.784 22.3559 149.799 22.5328 149.799 22.7098L149.43 22.0597C149.43 21.8792 149.416 21.7059 149.383 21.5325C149.376 21.4711 149.361 21.4134 149.347 21.3592Z" fill="#A1A9AC"/>
<path d="M149.43 22.0562L149.799 22.7062C149.795 23.0059 149.748 23.3128 149.658 23.6234L149.289 22.9734C149.383 22.6664 149.43 22.3595 149.43 22.0562Z" fill="#A6AEB1"/>
<path d="M149.293 22.977L149.661 23.627C149.448 24.3637 149.004 25.104 148.382 25.7756C148.201 25.9742 148.003 26.1656 147.793 26.3498L147.424 25.6998C147.634 25.5156 147.833 25.3242 148.013 25.1256C148.631 24.4503 149.08 23.7101 149.293 22.977Z" fill="#AAB3B6"/>
<path d="M147.424 25.6962L147.793 26.3462C147.486 26.6171 147.15 26.8662 146.788 27.0974L146.423 26.4473C146.777 26.2198 147.113 25.9671 147.424 25.6962Z" fill="#A6AEB1"/>
<path d="M146.416 26.4509L146.781 27.1009C146.495 27.2815 146.195 27.4512 145.881 27.5993L145.516 26.9493C145.83 26.8012 146.13 26.6315 146.416 26.4509Z" fill="#A1A9AC"/>
<path d="M145.52 26.9492L145.885 27.5992C145.693 27.6895 145.498 27.7762 145.296 27.8556C145.183 27.8989 145.068 27.9423 144.956 27.9784L144.591 27.3284C144.703 27.2887 144.815 27.2489 144.93 27.2056C145.129 27.1298 145.328 27.0431 145.52 26.9492Z" fill="#9EA4A7"/>
<path d="M144.591 27.332L144.956 27.982C144.598 28.1048 144.247 28.1951 143.908 28.2601L143.543 27.6101C143.882 27.5451 144.233 27.4512 144.591 27.332Z" fill="#98A0A2"/>
<path d="M143.539 27.6065L143.904 28.2565C142.776 28.4659 141.746 28.372 140.951 28.0145C140.72 27.9134 140.416 27.8845 140.091 27.9459L139.726 27.2959C140.055 27.2345 140.355 27.2634 140.586 27.3645C141.381 27.722 142.411 27.8195 143.539 27.6065Z" fill="#959B9D"/>
<path d="M139.73 27.2996L140.095 27.9496C139.997 27.9676 139.896 27.9929 139.791 28.029L139.422 27.379C139.527 27.3429 139.628 27.3176 139.73 27.2996Z" fill="#98A0A2"/>
<path d="M139.426 27.379L139.795 28.029C139.762 28.0398 139.73 28.0506 139.697 28.0651C139.639 28.0904 139.578 28.112 139.524 28.1409L139.155 27.4909C139.213 27.462 139.271 27.4367 139.329 27.4151C139.361 27.4006 139.394 27.3898 139.426 27.379Z" fill="#9EA4A7"/>
<path d="M139.151 27.4909L139.52 28.1409C139.43 28.1842 139.339 28.2348 139.256 28.289L138.888 27.639C138.971 27.5848 139.061 27.5342 139.151 27.4909Z" fill="#A1A9AC"/>
<path d="M138.888 27.639L139.256 28.289C139.151 28.3576 139.05 28.4334 138.96 28.5093L138.595 27.8593C138.682 27.7798 138.779 27.704 138.888 27.639Z" fill="#A6AEB1"/>
<path d="M138.591 27.8593L138.956 28.5093C138.895 28.5634 138.837 28.6212 138.783 28.679C138.598 28.8812 138.465 29.1015 138.403 29.3182L138.035 28.6681C138.1 28.4479 138.23 28.2276 138.414 28.029C138.472 27.9712 138.53 27.9134 138.591 27.8593Z" fill="#AAB3B6"/>
<path d="M138.035 28.6681L138.403 29.3181C138.378 29.4084 138.36 29.5023 138.36 29.5925L137.991 28.9425C137.995 28.8559 138.009 28.762 138.035 28.6681Z" fill="#A6AEB1"/>
<path d="M137.995 28.9462L138.363 29.5962C138.363 29.5998 138.363 29.6035 138.363 29.6071L137.995 28.9571C137.995 28.9498 137.995 28.9462 137.995 28.9462Z" fill="#A1A9AC"/>
<path d="M121.059 43.2716L121.428 43.9216C121.456 43.9722 121.478 44.0263 121.493 44.0877L121.124 43.4377C121.109 43.3763 121.084 43.3222 121.059 43.2716Z" fill="#9EA4A7"/>
<path d="M121.124 43.4377L121.493 44.0878C121.496 44.1058 121.5 44.1203 121.503 44.1383C121.514 44.1925 121.518 44.2503 121.514 44.3044L121.149 43.6544C121.149 43.5966 121.146 43.5425 121.138 43.4883C121.131 43.4702 121.128 43.4522 121.124 43.4377Z" fill="#A1A9AC"/>
<path d="M121.146 43.6544L121.511 44.3044C121.511 44.3153 121.511 44.3261 121.511 44.337L121.142 43.6869C121.146 43.6761 121.146 43.6653 121.146 43.6544Z" fill="#A6AEB1"/>
<path d="M121.146 43.6869L121.514 44.3369C121.5 44.4524 121.489 44.4958 121.478 44.5427L121.113 43.8927C121.12 43.8458 121.131 43.8024 121.146 43.6869Z" fill="#A6AEB1"/>
<path d="M121.113 43.8927L121.478 44.5427C121.261 44.9941 121.189 45.0916 121.106 45.1855L120.737 44.5355C120.824 44.438 120.893 44.3405 121.113 43.8927Z" fill="#AAB3B6"/>
<path d="M120.741 44.5319L121.11 45.1819C121.037 45.2577 120.99 45.2974 120.943 45.3444L120.578 44.6944C120.622 44.651 120.669 44.6077 120.741 44.5319Z" fill="#AAB3B6"/>
<path d="M120.379 44.8533L120.744 45.5033L108.561 50.2592L108.192 49.6092L120.379 44.8533Z" fill="#AAB1B4"/>
<path d="M120.575 44.6943L120.94 45.3443C120.932 45.3516 120.925 45.3588 120.918 45.3624L120.549 44.7124C120.56 44.7088 120.567 44.7016 120.575 44.6943Z" fill="#AAB3B6"/>
<path d="M120.553 44.7133L120.922 45.3633C120.856 45.4174 120.806 45.4608 120.748 45.5041L120.383 44.8541C120.437 44.8144 120.488 44.771 120.553 44.7133Z" fill="#A6AEB1"/>
<path d="M126.679 42.0114L127.048 42.6613C126.766 42.4375 126.74 42.4086 126.719 42.3761L126.35 41.7261C126.368 41.755 126.393 41.7875 126.679 42.0114Z" fill="#959B9D"/>
<path d="M127.185 42.1233L127.55 42.7733C127.46 42.7697 127.398 42.7625 127.344 42.7552C127.225 42.7336 127.127 42.7011 127.044 42.6614L126.675 42.0114C126.758 42.0511 126.856 42.0836 126.975 42.1052C127.037 42.1125 127.095 42.1197 127.185 42.1233Z" fill="#959B9D"/>
<path d="M127.387 42.1196L127.752 42.7696C127.684 42.7732 127.615 42.7769 127.554 42.7769L127.189 42.1269C127.25 42.1269 127.319 42.1232 127.387 42.1196Z" fill="#959B9D"/>
<path d="M139.571 37.3601L139.939 38.0101L127.752 42.766L127.387 42.1196L139.571 37.3601Z" fill="#AAB1B4"/>
<path d="M137.995 28.9534L138.36 29.6034L139.939 38.0102L139.571 37.3602L137.995 28.9534Z" fill="#A3ABAE"/>
<path d="M149.383 21.5325C149.004 19.5067 146.391 18.7664 143.55 19.875C142.325 20.3553 141.259 21.0992 140.471 21.9551C140.196 22.2548 139.95 22.5689 139.748 22.8903C139.69 22.9806 139.621 23.0709 139.542 23.154C139.31 23.4067 139 23.6234 138.638 23.7642C137.861 24.0676 137.149 23.9015 136.95 23.4031L135.375 15L104 27.249L108.196 49.6092L120.383 44.8533C120.448 44.8063 120.502 44.7594 120.578 44.6944C120.625 44.6511 120.672 44.6077 120.744 44.5319C120.828 44.438 120.9 44.3405 121.117 43.8891C121.124 43.8458 121.135 43.7988 121.149 43.6833C121.149 43.6183 121.149 43.5497 121.138 43.4847C121.073 43.1416 120.784 42.9249 120.398 42.8635C119.053 42.6685 118.07 41.9283 117.85 40.7474C117.633 39.5955 118.182 38.281 119.219 37.1543C120.007 36.2985 121.077 35.551 122.306 35.0707C125.147 33.9621 127.76 34.706 128.139 36.7318C128.352 37.8802 127.803 39.1946 126.672 40.4188C126.365 40.7546 126.195 41.1446 126.256 41.4841C126.271 41.5527 126.292 41.6069 126.35 41.7188C126.372 41.7513 126.397 41.7838 126.679 42.0041C126.762 42.0438 126.86 42.0763 126.979 42.098C127.037 42.1088 127.095 42.1124 127.185 42.116C127.25 42.1196 127.315 42.116 127.384 42.1088L139.567 37.3529L137.988 28.9462C137.988 28.6393 138.147 28.3107 138.411 28.0218C138.645 27.769 138.96 27.5487 139.321 27.4079C139.802 27.2201 140.257 27.2165 140.583 27.3609C141.692 27.8593 143.261 27.8484 144.923 27.202C146.148 26.7218 147.218 25.9779 148.006 25.1184C149.051 23.999 149.6 22.6809 149.383 21.5325Z" fill="url(#paint0_linear)"/>
<path d="M288.632 130.908L288.303 131.525C288.306 131.457 288.306 131.41 288.317 131.363L288.646 130.745C288.639 130.792 288.635 130.843 288.632 130.908Z" fill="#6BB2DD"/>
<path d="M288.65 131.067L288.321 131.684C288.31 131.623 288.306 131.576 288.303 131.525L288.632 130.908C288.635 130.958 288.639 131.005 288.65 131.067Z" fill="#6BB2DD"/>
<path d="M288.957 131.666L288.628 132.284C288.371 131.868 288.339 131.778 288.321 131.688L288.65 131.07C288.671 131.161 288.704 131.251 288.957 131.666Z" fill="#6BB2DD"/>
<path d="M289.13 131.843L288.802 132.461C288.751 132.41 288.715 132.374 288.69 132.349L289.018 131.731C289.044 131.756 289.08 131.793 289.13 131.843Z" fill="#6BB2DD"/>
<path d="M289.018 131.728L288.69 132.345C288.664 132.32 288.646 132.298 288.628 132.28L288.957 131.663C288.975 131.684 288.993 131.702 289.018 131.728Z" fill="#6BB2DD"/>
<path d="M290.591 132.435L290.262 133.053C290.157 133.053 290.045 133.042 289.933 133.024C289.861 133.01 289.785 132.991 289.709 132.97L290.038 132.352C290.114 132.374 290.189 132.392 290.262 132.406C290.374 132.425 290.486 132.435 290.591 132.435Z" fill="#6BB2DD"/>
<path d="M290.038 132.352L289.709 132.97C289.6 132.937 289.492 132.898 289.387 132.847L289.716 132.229C289.821 132.28 289.929 132.32 290.038 132.352Z" fill="#6BB2DD"/>
<path d="M289.712 132.229L289.383 132.847C289.3 132.807 289.217 132.764 289.138 132.717L289.467 132.099C289.546 132.146 289.629 132.193 289.712 132.229Z" fill="#6BB2DD"/>
<path d="M289.467 132.099L289.138 132.717C289.094 132.688 289.051 132.659 289.008 132.63C288.979 132.609 288.95 132.587 288.925 132.569L289.253 131.951C289.279 131.973 289.308 131.995 289.337 132.013C289.38 132.042 289.423 132.071 289.467 132.099Z" fill="#6BB2DD"/>
<path d="M289.253 131.948L288.925 132.565C288.881 132.533 288.841 132.497 288.802 132.461L289.131 131.843C289.17 131.879 289.21 131.915 289.253 131.948Z" fill="#6BB2DD"/>
<path d="M297.024 138.755L296.695 139.372C297.284 138.264 296.865 136.736 295.636 135.429L295.965 134.811C297.194 136.122 297.613 137.646 297.024 138.755Z" fill="#6BB2DD"/>
<path d="M295.969 134.811L295.64 135.429C295.416 135.191 295.163 134.956 294.884 134.736L295.213 134.118C295.492 134.338 295.745 134.57 295.969 134.811Z" fill="#6BB2DD"/>
<path d="M295.213 134.118L294.884 134.736C294.783 134.652 294.675 134.573 294.563 134.494C294.415 134.389 294.263 134.288 294.111 134.19L294.44 133.573C294.592 133.667 294.743 133.768 294.892 133.872C295.004 133.952 295.108 134.035 295.213 134.118Z" fill="#6BB2DD"/>
<path d="M294.44 133.573L294.111 134.19C293.836 134.021 293.551 133.869 293.265 133.735L293.594 133.118C293.88 133.248 294.165 133.403 294.44 133.573Z" fill="#6BB2DD"/>
<path d="M293.594 133.118L293.265 133.735C292.904 133.566 292.535 133.428 292.17 133.324L292.499 132.706C292.864 132.811 293.233 132.948 293.594 133.118Z" fill="#6BB2DD"/>
<path d="M292.499 132.706L292.17 133.324C291.921 133.251 291.671 133.194 291.426 133.15C291.028 133.082 290.638 133.049 290.262 133.053L290.591 132.435C290.963 132.428 291.353 132.461 291.751 132.533C292 132.573 292.25 132.634 292.499 132.706Z" fill="#6BB2DD"/>
<path d="M288.971 146.707L288.646 147.324L279 140.412L279.325 139.795L288.971 146.707Z" fill="#6BB2DD"/>
<path d="M288.971 146.707L288.646 147.324L279 140.412L279.325 139.795L288.971 146.707Z" fill="#6BB2DD"/>
<path d="M295.343 151.267L295.014 151.885L288.646 147.324L288.972 146.707L295.343 151.267Z" fill="#6BB2DD"/>
<path d="M289.46 148.036L289.131 148.653C289.304 148.324 289.178 147.869 288.813 147.483L289.141 146.865C289.507 147.255 289.633 147.707 289.46 148.036Z" fill="#6BB2DD"/>
<path d="M289.141 146.865L288.813 147.483C288.762 147.429 288.704 147.375 288.643 147.32L288.972 146.703C289.033 146.757 289.091 146.811 289.141 146.865Z" fill="#6BB2DD"/>
<path d="M295.343 151.267L295.014 151.885C294.942 151.845 294.87 151.806 294.798 151.773L295.126 151.156C295.199 151.188 295.271 151.228 295.343 151.267Z" fill="#6BB2DD"/>
<path d="M295.126 151.155L294.798 151.773C294.689 151.722 294.577 151.683 294.469 151.65L294.798 151.033C294.906 151.062 295.018 151.105 295.126 151.155Z" fill="#6BB2DD"/>
<path d="M294.798 151.033L294.469 151.65C294.393 151.629 294.32 151.61 294.245 151.6C293.995 151.556 293.753 151.56 293.551 151.621L293.88 151.004C294.082 150.942 294.32 150.939 294.573 150.982C294.649 150.993 294.722 151.011 294.798 151.033Z" fill="#6BB2DD"/>
<path d="M293.883 151L293.554 151.618C293.468 151.643 293.392 151.679 293.319 151.722L293.648 151.105C293.717 151.062 293.797 151.025 293.883 151Z" fill="#6BB2DD"/>
<path d="M293.648 151.105L293.319 151.722C293.272 151.751 293.233 151.784 293.193 151.82C293.186 151.827 293.178 151.838 293.168 151.845L293.496 151.228C293.504 151.221 293.511 151.21 293.522 151.202C293.562 151.166 293.601 151.134 293.648 151.105Z" fill="#6BB2DD"/>
<path d="M293.496 151.228L293.168 151.845C293.128 151.888 293.095 151.935 293.07 151.982L293.399 151.365C293.424 151.318 293.457 151.271 293.496 151.228Z" fill="#6BB2DD"/>
<path d="M320.234 143.391L319.909 144.005L304.668 158.8L304.993 158.183L320.234 143.391Z" fill="#6BB2DD"/>
<path d="M304.993 158.183L304.668 158.8L295.014 151.885L295.343 151.267L304.993 158.183Z" fill="#6BB2DD"/>
<path d="M294.566 125L288.65 130.745C288.639 130.792 288.635 130.843 288.632 130.908C288.635 130.958 288.639 131.005 288.65 131.07C288.668 131.161 288.7 131.254 288.957 131.666C288.993 131.706 289.029 131.746 289.127 131.843C289.192 131.901 289.257 131.959 289.333 132.013C289.622 132.219 289.947 132.352 290.258 132.406C290.37 132.424 290.482 132.435 290.587 132.435C290.959 132.428 291.35 132.461 291.747 132.533C292.799 132.717 293.901 133.172 294.888 133.876C297.212 135.541 297.978 137.978 296.597 139.318C295.802 140.087 294.472 140.329 293.041 140.076C291.986 139.889 290.876 139.434 289.889 138.73C288.534 137.758 287.714 136.527 287.533 135.396C287.479 135.068 287.24 134.71 286.846 134.429C286.77 134.374 286.695 134.328 286.532 134.241C286.481 134.216 286.431 134.19 285.925 134.035C285.824 134.017 285.722 134.006 285.61 134.006C285.552 134.006 285.491 134.01 285.412 134.017C285.354 134.024 285.299 134.039 285.242 134.053L279.322 139.798L288.968 146.707C289.539 147.194 289.709 147.837 289.329 148.202C289.094 148.429 288.7 148.494 288.278 148.422C288.259 148.418 288.241 148.415 288.227 148.411C286.792 148.158 285.459 148.393 284.66 149.166C283.283 150.505 284.049 152.943 286.373 154.608C287.356 155.312 288.465 155.767 289.521 155.955C290.952 156.207 292.286 155.969 293.081 155.196C293.887 154.413 293.955 153.261 293.417 152.105C293.265 151.769 293.283 151.434 293.518 151.206C293.753 150.978 294.147 150.906 294.57 150.982C294.823 151.025 295.09 151.123 295.336 151.271L304.989 158.186L320.23 143.395L294.566 125Z" fill="url(#paint1_linear)"/>
<path d="M293.504 154.64L293.175 155.258C293.088 155.424 292.976 155.583 292.839 155.727L293.168 155.11C293.301 154.962 293.413 154.806 293.504 154.64Z" fill="#6BB2DD"/>
<path d="M293.168 155.11L292.839 155.727C292.81 155.756 292.785 155.785 292.756 155.814C292.629 155.937 292.485 156.049 292.333 156.146L292.662 155.529C292.817 155.431 292.958 155.323 293.084 155.196C293.113 155.168 293.139 155.139 293.168 155.11Z" fill="#6BB2DD"/>
<path d="M292.658 155.529L292.329 156.146C292.091 156.298 291.823 156.413 291.534 156.5L291.863 155.883C292.152 155.796 292.419 155.677 292.658 155.529Z" fill="#6BB2DD"/>
<path d="M291.863 155.879L291.534 156.496C290.851 156.699 290.041 156.72 289.196 156.572C288.946 156.529 288.697 156.471 288.448 156.399L288.776 155.781C289.026 155.854 289.279 155.911 289.525 155.955C290.367 156.103 291.176 156.081 291.863 155.879Z" fill="#6BB2DD"/>
<path d="M288.776 155.778L288.448 156.395C288.079 156.287 287.71 156.15 287.349 155.98L287.678 155.363C288.039 155.536 288.408 155.673 288.776 155.778Z" fill="#6BB2DD"/>
<path d="M287.674 155.366L287.345 155.984C287.06 155.85 286.774 155.698 286.496 155.525L286.825 154.908C287.103 155.081 287.389 155.233 287.674 155.366Z" fill="#6BB2DD"/>
<path d="M286.828 154.908L286.499 155.525C286.348 155.431 286.196 155.33 286.048 155.225C285.939 155.146 285.831 155.066 285.73 154.983L286.059 154.366C286.16 154.449 286.268 154.528 286.377 154.608C286.525 154.713 286.677 154.814 286.828 154.908Z" fill="#6BB2DD"/>
<path d="M286.059 154.366L285.73 154.983C285.451 154.759 285.198 154.528 284.974 154.286L285.303 153.669C285.527 153.911 285.78 154.146 286.059 154.366Z" fill="#6BB2DD"/>
<path d="M285.303 153.673L284.974 154.29C283.745 152.979 283.326 151.452 283.915 150.339L284.244 149.722C283.652 150.831 284.071 152.358 285.303 153.673Z" fill="#6BB2DD"/>
<path d="M302.128 70.0409L302.24 70.7306C302.272 70.922 302.276 71.1134 302.258 71.3084L302.146 70.6187C302.164 70.4237 302.156 70.2287 302.128 70.0409Z" fill="#6BB2DD"/>
<path d="M302.142 70.6187L302.254 71.3084C302.233 71.5214 302.182 71.7381 302.102 71.9475L301.99 71.2578C302.07 71.0448 302.124 70.8317 302.142 70.6187Z" fill="#6BB2DD"/>
<path d="M301.99 71.2578L302.102 71.9476C302.005 72.2076 301.86 72.4676 301.676 72.7167L301.564 72.027C301.748 71.7778 301.893 71.5178 301.99 71.2578Z" fill="#6BB2DD"/>
<path d="M301.564 72.027L301.676 72.7167C301.278 73.2548 300.686 73.7495 299.916 74.1539C299.674 74.2767 299.424 74.3887 299.175 74.4862L299.063 73.7964C299.316 73.6989 299.561 73.5906 299.804 73.4642C300.577 73.0598 301.17 72.5614 301.564 72.027Z" fill="#6BB2DD"/>
<path d="M299.063 73.7964L299.175 74.4861C298.799 74.6306 298.416 74.7425 298.029 74.8292L297.917 74.1394C298.304 74.0528 298.687 73.9408 299.063 73.7964Z" fill="#6BB2DD"/>
<path d="M297.917 74.136L298.029 74.8257C297.711 74.8943 297.393 74.9449 297.079 74.9738L296.967 74.284C297.285 74.2552 297.603 74.2046 297.917 74.136Z" fill="#6BB2DD"/>
<path d="M296.967 74.2839L297.079 74.9737C296.768 75.0025 296.457 75.0134 296.15 75.0062L296.038 74.3164C296.345 74.3273 296.656 74.3164 296.967 74.2839Z" fill="#6BB2DD"/>
<path d="M296.038 74.3201L296.15 75.0098C295.882 75.0026 295.622 74.9845 295.366 74.9484L295.253 74.2587C295.51 74.2912 295.774 74.3128 296.038 74.3201Z" fill="#6BB2DD"/>
<path d="M295.254 74.2587L295.366 74.9484C295.297 74.9412 295.228 74.934 295.156 74.934L295.044 74.2443C295.116 74.2443 295.185 74.2515 295.254 74.2587Z" fill="#6BB2DD"/>
<path d="M295.044 74.2443L295.156 74.934C295.062 74.934 294.964 74.9376 294.871 74.9448L294.758 74.2551C294.856 74.2443 294.95 74.2407 295.044 74.2443Z" fill="#6BB2DD"/>
<path d="M294.758 74.2515L294.871 74.9412C294.777 74.952 294.683 74.9665 294.589 74.9845L294.477 74.2948C294.571 74.2767 294.665 74.2623 294.758 74.2515Z" fill="#6BB2DD"/>
<path d="M294.476 74.2985L294.589 74.9882C294.476 75.0135 294.368 75.0424 294.26 75.0857L294.148 74.396C294.252 74.3526 294.364 74.3201 294.476 74.2985Z" fill="#6BB2DD"/>
<path d="M294.148 74.3959L294.26 75.0856C294.191 75.1109 294.122 75.1434 294.057 75.1759C293.822 75.2987 293.642 75.4503 293.522 75.6092L293.41 74.9195C293.53 74.757 293.71 74.6089 293.945 74.4862C294.01 74.45 294.079 74.4212 294.148 74.3959Z" fill="#6BB2DD"/>
<path d="M293.41 74.9196L293.522 75.6093C293.468 75.6815 293.425 75.7609 293.399 75.8368L293.287 75.1471C293.316 75.0676 293.356 74.9918 293.41 74.9196Z" fill="#6BB2DD"/>
<path d="M293.287 75.147L293.399 75.8367C293.374 75.8981 293.36 75.9631 293.356 76.0245L293.244 75.3347C293.248 75.2697 293.262 75.2084 293.287 75.147Z" fill="#6BB2DD"/>
<path d="M293.24 75.3348L293.352 76.0246C293.345 76.0823 293.349 76.1401 293.356 76.1943L293.244 75.5046C293.237 75.4504 293.237 75.3926 293.24 75.3348Z" fill="#6BB2DD"/>
<path d="M299.941 81.7554L300.053 82.4451L290.154 87.6307L290.042 86.941L299.941 81.7554Z" fill="#6BB2DD"/>
<path d="M290.042 86.9409L290.154 87.6306C289.97 87.7426 289.825 87.8726 289.724 88.0062L289.612 87.3165C289.713 87.1829 289.858 87.0529 290.042 86.9409Z" fill="#6BB2DD"/>
<path d="M289.612 87.3201L289.724 88.0098C289.67 88.0856 289.626 88.1615 289.597 88.2373L289.485 87.5476C289.514 87.4717 289.558 87.3923 289.612 87.3201Z" fill="#6BB2DD"/>
<path d="M289.485 87.5476L289.597 88.2373C289.576 88.2987 289.558 88.3637 289.554 88.4251L289.442 87.7354C289.446 87.674 289.46 87.6126 289.485 87.5476Z" fill="#6BB2DD"/>
<path d="M289.438 87.7354L289.55 88.4251C289.543 88.4829 289.547 88.5406 289.558 88.5948L289.446 87.9051C289.435 87.8509 289.435 87.7931 289.438 87.7354Z" fill="#6BB2DD"/>
<path d="M285.6 91.0179L285.712 91.7077C285.687 91.556 285.611 91.4152 285.474 91.2888C285.296 91.1263 285.043 91.0215 284.762 90.971L284.65 90.2812C284.931 90.3282 285.181 90.4329 285.362 90.599C285.495 90.7218 285.575 90.8663 285.6 91.0179Z" fill="#6BB2DD"/>
<path d="M284.649 90.2849L284.761 90.9746C284.664 90.9566 284.563 90.9493 284.458 90.9457L284.346 90.256C284.451 90.256 284.552 90.2668 284.649 90.2849Z" fill="#6BB2DD"/>
<path d="M284.346 90.256L284.458 90.9457C284.368 90.9421 284.274 90.9457 284.18 90.9566L284.068 90.2668C284.162 90.256 284.256 90.2524 284.346 90.256Z" fill="#6BB2DD"/>
<path d="M284.068 90.2668L284.18 90.9566C284.086 90.9638 283.988 90.9782 283.894 90.9999L283.782 90.3102C283.88 90.2885 283.974 90.2741 284.068 90.2668Z" fill="#6BB2DD"/>
<path d="M283.786 90.3102L283.898 90.9999C283.782 91.0252 283.67 91.0577 283.562 91.101L283.45 90.4113C283.558 90.368 283.67 90.3355 283.786 90.3102Z" fill="#6BB2DD"/>
<path d="M283.446 90.4113L283.558 91.101C283.515 91.1154 283.475 91.1335 283.432 91.1551L283.32 90.4654C283.363 90.4438 283.406 90.4257 283.446 90.4113Z" fill="#6BB2DD"/>
<path d="M273.417 95.6511L273.529 96.3408L256.112 80.5818L256 79.8921L273.417 95.6511Z" fill="#6BB2DD"/>
<path d="M283.32 90.4619L283.432 91.1516L273.529 96.3409L273.417 95.6511L283.32 90.4619Z" fill="#6BB2DD"/>
<path d="M282.521 66L289.052 71.9042C289.543 72.2509 290.403 72.2725 291.068 71.9295C291.495 71.7056 291.726 71.4023 291.769 71.1025C291.889 70.0734 292.695 69.0297 294.097 68.2967C296.544 67.04 299.735 67.1881 301.3 68.6036C302.879 70.03 302.211 72.2075 299.807 73.4642C298.362 74.2045 296.706 74.4501 295.254 74.2587C294.827 74.2081 294.35 74.2803 293.945 74.4862C293.262 74.8437 293.052 75.4287 293.41 75.8476L299.941 81.7554L290.042 86.941C289.406 87.3202 289.243 87.9268 289.691 88.3313C289.959 88.5732 290.389 88.6852 290.841 88.6707C292.391 88.6057 293.873 88.9957 294.795 89.8299C296.37 91.2563 295.705 93.4302 293.302 94.6905C290.855 95.9472 287.664 95.8027 286.095 94.3836C285.174 93.5494 285.022 92.4624 285.531 91.4513C285.669 91.1552 285.625 90.841 285.362 90.5991C284.913 90.1946 284.021 90.1405 283.323 90.4619L273.42 95.6475L256 79.8884L282.521 66Z" fill="url(#paint2_linear)"/>
<path d="M295.615 91.2634L295.727 91.9532C295.756 92.1445 295.763 92.3359 295.745 92.5309L295.633 91.8412C295.655 91.6462 295.648 91.4548 295.615 91.2634Z" fill="#6BB2DD"/>
<path d="M295.633 91.8412L295.745 92.5309C295.723 92.744 295.673 92.9606 295.593 93.1737L295.481 92.484C295.561 92.2709 295.611 92.0542 295.633 91.8412Z" fill="#6BB2DD"/>
<path d="M295.481 92.484L295.593 93.1737C295.496 93.4373 295.351 93.6937 295.167 93.9465L295.055 93.2568C295.239 93.004 295.384 92.744 295.481 92.484Z" fill="#6BB2DD"/>
<path d="M295.055 93.2532L295.167 93.9429C294.769 94.4773 294.18 94.9757 293.41 95.3765C293.172 95.4993 292.93 95.6076 292.68 95.7015L292.568 95.0118C292.818 94.9179 293.063 94.806 293.298 94.6868C294.068 94.286 294.657 93.7912 295.055 93.2532Z" fill="#6BB2DD"/>
<path d="M292.568 95.0154L292.68 95.7051C292.304 95.8496 291.918 95.9615 291.527 96.0482L291.415 95.3584C291.806 95.2718 292.192 95.1598 292.568 95.0154Z" fill="#6BB2DD"/>
<path d="M291.415 95.3585L291.527 96.0482C291.206 96.1169 290.884 96.1674 290.562 96.1999L290.45 95.5102C290.772 95.4777 291.094 95.4271 291.415 95.3585Z" fill="#6BB2DD"/>
<path d="M290.45 95.5101L290.562 96.1999C290.248 96.2288 289.93 96.2432 289.623 96.2324L289.511 95.5426C289.818 95.5499 290.132 95.539 290.45 95.5101Z" fill="#6BB2DD"/>
<path d="M289.511 95.5426L289.623 96.2323C289.272 96.2251 288.932 96.189 288.6 96.1348L288.488 95.4451C288.817 95.5028 289.16 95.5353 289.511 95.5426Z" fill="#6BB2DD"/>
<path d="M288.488 95.4451L288.6 96.1349C287.653 95.9724 286.811 95.6185 286.207 95.0732C285.737 94.6471 285.466 94.156 285.383 93.6396L285.271 92.9498C285.354 93.4626 285.625 93.9573 286.095 94.3798C286.695 94.9287 287.537 95.2826 288.488 95.4451Z" fill="#6BB2DD"/>
<path d="M62.803 38.9926L62.8825 39.6859C62.9042 39.8773 62.9512 40.0651 63.0235 40.2456L62.9439 39.5523C62.8717 39.3717 62.8247 39.1839 62.803 38.9926Z" fill="#6BB2DD"/>
<path d="M62.944 39.5522L63.0235 40.2456C63.103 40.4478 63.2114 40.6392 63.3451 40.8234L63.2656 40.13C63.1319 39.9495 63.0235 39.7545 62.944 39.5522Z" fill="#6BB2DD"/>
<path d="M63.2656 40.1337L63.3451 40.827C63.4137 40.9209 63.486 41.0112 63.5691 41.0978C63.5908 41.1195 63.6089 41.1448 63.6234 41.1665L63.5475 40.4731C63.5294 40.4478 63.5113 40.4262 63.4896 40.4045C63.4065 40.3142 63.3342 40.2239 63.2656 40.1337Z" fill="#6BB2DD"/>
<path d="M63.5439 40.4695L63.6198 41.1628C63.6595 41.217 63.6921 41.2784 63.7174 41.3362L63.6378 40.6428C63.6198 40.585 63.5873 40.5273 63.5439 40.4695Z" fill="#6BB2DD"/>
<path d="M63.6415 40.6465L63.721 41.3398C63.7427 41.394 63.7571 41.4482 63.7644 41.5059L63.6848 40.8126C63.6776 40.7548 63.6632 40.7007 63.6415 40.6465Z" fill="#6BB2DD"/>
<path d="M68.264 42.7084L68.3435 43.4018C68.3255 43.2537 68.3616 43.0948 68.4556 42.9396C68.5821 42.7337 68.7953 42.5604 69.0555 42.4376L68.976 41.7443C68.7158 41.867 68.5025 42.0368 68.3761 42.2426C68.2821 42.4015 68.246 42.5604 68.264 42.7084Z" fill="#6BB2DD"/>
<path d="M68.976 41.7479L69.0555 42.4413C69.1458 42.3979 69.2434 42.3618 69.3446 42.3293L69.2651 41.636C69.1639 41.6685 69.0699 41.7046 68.976 41.7479Z" fill="#6BB2DD"/>
<path d="M69.2651 41.636L69.3446 42.3293C69.3808 42.3185 69.4205 42.3077 69.4603 42.2968C69.6121 42.2607 69.7567 42.221 69.9048 42.1741L69.8289 41.4807C69.6844 41.524 69.5362 41.5674 69.3844 41.6035C69.341 41.6143 69.3049 41.6252 69.2651 41.636Z" fill="#6BB2DD"/>
<path d="M69.8253 41.4843L69.9012 42.1776C70.2373 42.0729 70.5626 41.9501 70.8662 41.8056L70.7867 41.1123C70.4867 41.2568 70.1614 41.3795 69.8253 41.4843Z" fill="#6BB2DD"/>
<path d="M70.7903 41.1123L70.8698 41.8057C71.7589 41.3868 72.4853 40.8018 72.919 40.0976C73.2407 39.5704 73.36 39.0395 73.3021 38.5304L73.2262 37.837C73.2841 38.3426 73.1612 38.877 72.8431 39.4043C72.4094 40.1084 71.6794 40.6934 70.7903 41.1123Z" fill="#6BB2DD"/>
<path d="M33.015 48.9666L33.0945 49.6599C33.1162 49.8513 33.1632 50.0391 33.2319 50.2196L33.1523 49.5263C33.0837 49.3457 33.0367 49.1579 33.015 48.9666Z" fill="#6BB2DD"/>
<path d="M33.1523 49.5262L33.2319 50.2196C33.3114 50.4182 33.4162 50.6132 33.5535 50.7974L33.474 50.104C33.3403 49.9199 33.2319 49.7285 33.1523 49.5262Z" fill="#6BB2DD"/>
<path d="M33.474 50.104L33.5535 50.7973C33.7198 51.0248 33.9258 51.2343 34.1716 51.4257L34.092 50.7323C33.8463 50.541 33.6403 50.3315 33.474 50.104Z" fill="#6BB2DD"/>
<path d="M34.092 50.7324L34.1716 51.4258C34.7101 51.8447 35.4329 52.1697 36.3039 52.3466C36.5569 52.3972 36.8099 52.4369 37.0665 52.4585L36.987 51.7652C36.7304 51.7399 36.4738 51.7038 36.2244 51.6533C35.3534 51.4763 34.6306 51.1513 34.092 50.7324Z" fill="#6BB2DD"/>
<path d="M36.9906 51.7651L37.0701 52.4585C37.4604 52.4946 37.8544 52.5018 38.2447 52.4765L38.1652 51.7832C37.7749 51.8085 37.3809 51.8012 36.9906 51.7651Z" fill="#6BB2DD"/>
<path d="M38.1616 51.7869L38.2411 52.4802C38.5628 52.4622 38.8844 52.4224 39.1989 52.3683L39.1194 51.6749C38.8049 51.7291 38.4869 51.7652 38.1616 51.7869Z" fill="#6BB2DD"/>
<path d="M39.1193 51.6713L39.1988 52.3647C39.5096 52.3105 39.8168 52.2347 40.1096 52.1444L40.0301 51.451C39.7373 51.5413 39.4301 51.6172 39.1193 51.6713Z" fill="#6BB2DD"/>
<path d="M40.0302 51.451L40.1097 52.1444C40.3843 52.0613 40.6482 51.9638 40.9012 51.8519C40.9698 51.823 41.0457 51.7941 41.118 51.7724L41.0385 51.0791C40.9626 51.1008 40.8903 51.1297 40.8217 51.1585C40.5723 51.2705 40.3048 51.368 40.0302 51.451Z" fill="#6BB2DD"/>
<path d="M41.0421 51.079L41.1216 51.7724C41.2119 51.7435 41.3023 51.7218 41.3962 51.7074L41.3167 51.014C41.2228 51.0321 41.1324 51.0538 41.0421 51.079Z" fill="#6BB2DD"/>
<path d="M41.3168 51.0141L41.3963 51.7074C41.4903 51.6893 41.5842 51.6785 41.6818 51.6749L41.6023 50.9816C41.5047 50.9852 41.4107 50.996 41.3168 51.0141Z" fill="#6BB2DD"/>
<path d="M41.6023 50.9816L41.6818 51.6749C41.7938 51.6677 41.9095 51.6713 42.0215 51.6821L41.942 50.9888C41.83 50.9743 41.7143 50.9743 41.6023 50.9816Z" fill="#6BB2DD"/>
<path d="M41.942 50.9851L42.0215 51.6784C42.0938 51.6857 42.1697 51.6965 42.2419 51.7109C42.5022 51.7651 42.7118 51.859 42.8708 51.9818L42.7913 51.2884C42.6323 51.1657 42.419 51.0682 42.1624 51.0176C42.0901 51.0032 42.0179 50.9923 41.942 50.9851Z" fill="#6BB2DD"/>
<path d="M42.7913 51.2886L42.8708 51.9819C42.9431 52.0397 43.0046 52.1011 43.0515 52.1661L42.972 51.4727C42.925 51.4077 42.8672 51.3464 42.7913 51.2886Z" fill="#6BB2DD"/>
<path d="M42.9756 51.4763L43.0552 52.1697C43.0949 52.2238 43.1274 52.2816 43.1491 52.3394L43.0696 51.646C43.0479 51.5847 43.0154 51.5305 42.9756 51.4763Z" fill="#6BB2DD"/>
<path d="M43.0696 51.646L43.1491 52.3393C43.1708 52.3935 43.1853 52.4477 43.1925 52.5054L43.113 51.8121C43.1058 51.7543 43.0913 51.7002 43.0696 51.646Z" fill="#6BB2DD"/>
<path d="M70.0096 35.1467C67.3424 34.6014 64.2884 35.6234 63.1861 37.4325C62.5428 38.487 62.7126 39.5703 63.4897 40.4009C63.7102 40.6465 63.7607 40.9606 63.5728 41.2676C63.2656 41.7695 62.456 42.062 61.7043 41.9645L50.6702 39.7148L46.1236 47.1573C45.7622 47.6485 44.9056 47.9193 44.1503 47.7676C43.6985 47.6773 43.3877 47.4498 43.2612 47.1718C42.8492 46.2184 41.7758 45.4384 40.218 45.1207C37.5544 44.579 34.5004 45.6009 33.3981 47.4065C32.2958 49.2121 33.5607 51.1151 36.228 51.6604C37.7857 51.9782 39.4699 51.7615 40.8252 51.1657C41.2228 50.996 41.7143 50.931 42.1625 51.0249C42.9178 51.1801 43.2901 51.7001 43.0371 52.2165L38.4905 59.6591L67.9279 65.6644L80.104 45.7273L69.07 43.474C68.3833 43.2754 68.0688 42.7554 68.376 42.2534C68.564 41.9465 68.9435 41.719 69.3808 41.6106C70.8915 41.2459 72.1962 40.4623 72.8395 39.4078C73.9419 37.595 72.6733 35.692 70.0096 35.1467Z" fill="url(#paint3_linear)"/>
<path d="M38.4905 59.6483L38.57 60.3417L68.0074 66.3506L67.9279 65.6536L38.4905 59.6483Z" fill="#6BB2DD"/>
<path d="M67.9279 65.6536L68.0074 66.3505L80.1835 46.4134L80.104 45.7201L67.9279 65.6536Z" fill="#6BB2DD"/>
</g>
<defs>
<linearGradient id="paint0_linear" x1="103.999" y1="32.3056" x2="149.431" y2="32.3056" gradientUnits="userSpaceOnUse">
<stop stop-color="#39C2FF"/>
<stop offset="1" stop-color="#2642D3"/>
</linearGradient>
<linearGradient id="paint1_linear" x1="279.327" y1="141.592" x2="320.235" y2="141.592" gradientUnits="userSpaceOnUse">
<stop stop-color="#E0C3E7"/>
<stop offset="1" stop-color="#39C2FF"/>
</linearGradient>
<linearGradient id="paint2_linear" x1="255.999" y1="80.8241" x2="302.155" y2="80.8241" gradientUnits="userSpaceOnUse">
<stop stop-color="#8DCFFF"/>
<stop offset="1" stop-color="#B550EA"/>
</linearGradient>
<linearGradient id="paint3_linear" x1="33.0004" y1="50.3287" x2="80.1055" y2="50.3287" gradientUnits="userSpaceOnUse">
<stop stop-color="#AE94DB"/>
<stop offset="1" stop-color="#39C2FF"/>
</linearGradient>
<clipPath id="clip0">
<rect width="334" height="227.404" fill="white" transform="translate(-1)"/>
</clipPath>
</defs>
</svg>
